<svg xmlns="http://www.w3.org/2000/svg" xmlns:xlink="http://www.w3.org/1999/xlink" version="1.1" viewBox="0 0 1620 1300" style="background: #111111"><defs><style>@import url(https://fonts.googleapis.com/css?family=Open+Sans:400,700);</style></defs><defs joint-selector="defs"></defs><g joint-selector="layers"  transform="matrix(1,0,0,1,0,0)"><g ></g><g ><!--z-index:0--><!--z-index:1--><!--z-index:2--><!--z-index:3--><!--z-index:4--><!--z-index:5--><!--z-index:6--><!--z-index:7--><!--z-index:8--><!--z-index:9--><!--z-index:10--><!--z-index:11--><!--z-index:12--><g   id="j_259"  transform="translate(20,1263.6)"><g id="v-3030"><text  id="v-3031" font-size="22px" xml:space="preserve" y="0.8em" font-weight="normal" text-anchor="start" fill="#777777" pointer-events="none" display="block" font-family="Open Sans"><tspan dy="0" >neděle 16. března 2025 v 21:43 středoevropský standardní čas</tspan></text></g></g><!--z-index:13--><g   id="j_258"  transform="translate(20,1220.3999999999999)"><g id="v-3028"><text  id="v-3029" font-size="36px" xml:space="preserve" y="0.8em" font-weight="normal" text-anchor="start" fill="#bbbbbb" pointer-events="none" display="block" font-family="Open Sans"><tspan dy="0" >[Component] pokusHttp - file database</tspan></text></g></g><!--z-index:14--><g   id="j_261"  transform="translate(930,445)" style=""><g id="v-3042"><rect  id="v-3043" width="490" height="411" rx="0" ry="0" fill="#111111" stroke="#3844a4" stroke-width="1" stroke-dasharray="20,20" pointer-events="none"></rect><text  id="v-3044" font-size="24px" xml:space="preserve" y="372" font-weight="normal" fill="#3844a4" text-anchor="start" pointer-events="visible" font-family="Open Sans" transform="matrix(1,0,0,1,15,0)"><tspan dy="0" >file database</tspan></text><text  id="v-3045" font-size="17px" xml:space="preserve" y="396" font-weight="normal" fill="#3844a4" text-anchor="start" pointer-events="visible" font-family="Open Sans" transform="matrix(1,0,0,1,15,0)"><tspan dy="0" >[Container]</tspan></text><image  id="v-3046" pointer-events="visible"></image></g></g><!--z-index:15--><g   id="j_260"  transform="translate(950,465)" style=""><g  id="v-3035" style="opacity: 1;"><rect  id="v-3036" rx="1" ry="1" stroke="#5a67c2" stroke-width="2" pointer-events="visiblePainted" fill="#6472d8" width="450" height="300" style="fill: rgb(100, 114, 216); stroke: rgb(90, 103, 194);"></rect><text  id="v-3037" font-size="34" xml:space="preserve" y="0.8em" font-weight="bold" text-anchor="middle" pointer-events="visible" font-family="Open Sans" fill="#ffffff" transform="matrix(1,0,0,1,225,102.5)" style="fill: rgb(255, 255, 255);"><tspan dy="0" >database</tspan></text><text  id="v-3038" font-size="17" xml:space="preserve" y="0.8em" text-anchor="middle" font-family="Open Sans" fill="#ffffff" transform="matrix(1,0,0,1,225,143.3)" style="fill: rgb(255, 255, 255);"><tspan dy="0" >[Component]</tspan></text><text  id="v-3039" font-size="24" xml:space="preserve" y="0.8em" text-anchor="middle" font-family="Open Sans" fill="#ffffff" transform="matrix(1,0,0,1,225,173.7)" style="fill: rgb(255, 255, 255);"><tspan dy="0" >Stores all files and informations.</tspan></text><g  id="v-3040" color="#ffffff" transform="matrix(1,0,0,1,222.5,268)" display="none" style="fill: rgb(255, 255, 255);"><g ></g><g ></g><g ></g><g ></g></g><image  id="v-3041"></image></g></g><!--z-index:16--><g   id="j_262"  transform="translate(200,165)" style=""><g  id="v-3050" style="opacity: 1;"><rect  id="v-3051" rx="1" ry="1" stroke="#5a67c2" stroke-width="2" pointer-events="visiblePainted" fill="#6472d8" width="450" height="300" style="fill: rgb(100, 114, 216); stroke: rgb(90, 103, 194);"></rect><text  id="v-3052" font-size="34" xml:space="preserve" y="0.8em" font-weight="bold" text-anchor="middle" pointer-events="visible" font-family="Open Sans" fill="#ffffff" transform="matrix(1,0,0,1,225,121.9)" style="fill: rgb(255, 255, 255);"><tspan dy="0" >BackgroundObserver</tspan></text><text  id="v-3053" font-size="17" xml:space="preserve" y="0.8em" text-anchor="middle" font-family="Open Sans" fill="#ffffff" transform="matrix(1,0,0,1,225,162.7)" style="fill: rgb(255, 255, 255);"><tspan dy="0" >[Container]</tspan></text><text  id="v-3054" font-size="24" xml:space="preserve" display="none" y="0.8em" text-anchor="middle" font-family="Open Sans" fill="#ffffff" transform="matrix(1,0,0,1,225,183.1)" style="fill: rgb(255, 255, 255);"><tspan dy="0" style="fill-opacity: 0; stroke-opacity: 0;" >-</tspan></text><g  id="v-3055" color="#ffffff" transform="matrix(1,0,0,1,210,268)" display="none" style="fill: rgb(255, 255, 255);"><g  transform="translate(5 0)"><svg xmlns="http://www.w3.org/2000/svg" width="20" height="20" fill="currentColor" viewBox="0 0 16 16"><path fill-rule="evenodd" d="M6.5 12a5.5 5.5 0 1 0 0-11 5.5 5.5 0 0 0 0 11zM13 6.5a6.5 6.5 0 1 1-13 0 6.5 6.5 0 0 1 13 0z"></path><path d="M10.344 11.742c.03.04.062.078.098.115l3.85 3.85a1 1 0 0 0 1.415-1.414l-3.85-3.85a1.007 1.007 0 0 0-.115-.1 6.538 6.538 0 0 1-1.398 1.4z"></path><path fill-rule="evenodd" d="M6.5 3a.5.5 0 0 1 .5.5V6h2.5a.5.5 0 0 1 0 1H7v2.5a.5.5 0 0 1-1 0V7H3.5a.5.5 0 0 1 0-1H6V3.5a.5.5 0 0 1 .5-.5z"></path></svg></g><g ></g><g ></g><g ></g></g><image  id="v-3056"></image></g></g><!--z-index:17--><g   id="j_263"  transform="translate(200,765)" style=""><g  id="v-3060" style="opacity: 1;"><rect  id="v-3061" rx="1" ry="1" stroke="#5a67c2" stroke-width="2" pointer-events="visiblePainted" fill="#6472d8" width="450" height="300" style="fill: rgb(100, 114, 216); stroke: rgb(90, 103, 194);"></rect><text  id="v-3062" font-size="34" xml:space="preserve" y="0.8em" font-weight="bold" text-anchor="middle" pointer-events="visible" font-family="Open Sans" fill="#ffffff" transform="matrix(1,0,0,1,225,121.9)" style="fill: rgb(255, 255, 255);"><tspan dy="0" >File Controller api</tspan></text><text  id="v-3063" font-size="17" xml:space="preserve" y="0.8em" text-anchor="middle" font-family="Open Sans" fill="#ffffff" transform="matrix(1,0,0,1,225,162.7)" style="fill: rgb(255, 255, 255);"><tspan dy="0" >[Container]</tspan></text><text  id="v-3064" font-size="24" xml:space="preserve" display="none" y="0.8em" text-anchor="middle" font-family="Open Sans" fill="#ffffff" transform="matrix(1,0,0,1,225,183.1)" style="fill: rgb(255, 255, 255);"><tspan dy="0" style="fill-opacity: 0; stroke-opacity: 0;" >-</tspan></text><g  id="v-3065" color="#ffffff" transform="matrix(1,0,0,1,210,268)" display="none" style="fill: rgb(255, 255, 255);"><g  transform="translate(5 0)"><svg xmlns="http://www.w3.org/2000/svg" width="20" height="20" fill="currentColor" viewBox="0 0 16 16"><path fill-rule="evenodd" d="M6.5 12a5.5 5.5 0 1 0 0-11 5.5 5.5 0 0 0 0 11zM13 6.5a6.5 6.5 0 1 1-13 0 6.5 6.5 0 0 1 13 0z"></path><path d="M10.344 11.742c.03.04.062.078.098.115l3.85 3.85a1 1 0 0 0 1.415-1.414l-3.85-3.85a1.007 1.007 0 0 0-.115-.1 6.538 6.538 0 0 1-1.398 1.4z"></path><path fill-rule="evenodd" d="M6.5 3a.5.5 0 0 1 .5.5V6h2.5a.5.5 0 0 1 0 1H7v2.5a.5.5 0 0 1-1 0V7H3.5a.5.5 0 0 1 0-1H6V3.5a.5.5 0 0 1 .5-.5z"></path></svg></g><g ></g><g ></g><g ></g></g><image  id="v-3066"></image></g></g><!--z-index:18--><g   id="j_264" ><path  stroke="#aaaaaa" d="M 650 909 L 845 904 C 851.6666666666666 904 857.3333333333333 901.6666666666666 862 897 L 1009 765" id="v-3080" stroke-width="2" stroke-dasharray="30 30" fill="none" style="opacity: 1;"></path><path  fill="black" stroke="black" d="M 0 0 0 0" transform="matrix(0.9996734846385837,-0.025552379743403325,0.025552379743403325,0.9996734846385837,650,909.239990234375)"></path><path  fill="#aaaaaa" stroke="#aaaaaa" d="M 20 0 L 0 10 L 20 20 z" id="v-3082" transform="matrix(-0.7421398305834731,0.6702450834295866,-0.6702450834295866,-0.7421398305834731,1015.6124355659119,772.42140108482)" style="opacity: 1;"></path><path  d="M 650 909 L 845 904 C 851.6666666666666 904 857.3333333333333 901.6666666666666 862 897 L 1009 765" id="v-3081" fill="none" style="cursor: auto; pointer-events: visiblepainted;"></path><g ><g id="v-3074"  label-idx="0" cursor="move" transform="matrix(1,0,0,1,855.3656616210938,901.7542724609375)" style="cursor: default; opacity: 1;"><rect joint-selector="rect" id="v-3077" fill="#111111" rx="3" ry="3" pointer-events="none" width="182.82505798339844" height="61.51533508300781" transform="matrix(1,0,0,1,-91.4,-30.8)"></rect><text joint-selector="text" id="v-3076" font-size="24px" xml:space="preserve" y="0.8em" fill="#aaaaaa" text-anchor="middle" pointer-events="none" font-family="Open Sans" font-weight="normal" transform="matrix(1,0,0,1,0,-23.8)"><tspan dy="0" >saves file and its</tspan><tspan dy="1.2em" x="0" >informations</tspan></text></g><g id="v-3075"  label-idx="1" cursor="move" transform="matrix(1,0,0,1,845.3656616210938,942.5542602539062)" style="cursor: default; opacity: 1;"><rect joint-selector="rect" id="v-3079" fill="#ffffff" rx="3" ry="3"  width="0" height="0" transform="matrix(1,0,0,1,0,0)" display="none"></rect><text joint-selector="text" id="v-3078" fill="#000000" font-size="14" text-anchor="middle" pointer-events="none"></text></g></g><g  display="none" style="display: none;"><g  transform="translate(855, 904)" id="v-3071"><circle  idx="0" r="10"></circle><path  idx="0" d="M16,5.333c-7.732,0-14,4.701-14,10.5c0,1.982,0.741,3.833,2.016,5.414L2,25.667l5.613-1.441c2.339,1.317,5.237,2.107,8.387,2.107c7.732,0,14-4.701,14-10.5C30,10.034,23.732,5.333,16,5.333z" transform="translate(5, -33)"></path><path  idx="0" transform="scale(.8) translate(9.5, -37)" d="M24.778,21.419 19.276,15.917 24.777,10.415 21.949,7.585 16.447,13.087 10.945,7.585 8.117,10.415 13.618,15.917 8.116,21.419 10.946,24.248 16.447,18.746 21.948,24.248z"><title>Remove vertex.</title></path></g></g><g  id="v-3084" display="none"><g  id="v-3072"><path  end="source" d="M 26 0 L 0 13 L 26 26 z"></path></g><g  id="v-3073"><path  end="target" d="M 26 0 L 0 13 L 26 26 z"></path></g></g><g  id="v-3083" display="none"><g  id="v-3070" transform="translate(689.9868572363793, 907.9746959682979) "><g  event="remove"><circle r="11"></circle><path transform="scale(.8) translate(-16, -16)" d="M24.778,21.419 19.276,15.917 24.777,10.415 21.949,7.585 16.447,13.087 10.945,7.585 8.117,10.415 13.618,15.917 8.116,21.419 10.946,24.248 16.447,18.746 21.948,24.248z"></path><title>Remove link.</title></g><g  event="link:options"><circle r="11" transform="translate(25)"></circle><path fill="white" transform="scale(.55) translate(29, -16)" d="M31.229,17.736c0.064-0.571,0.104-1.148,0.104-1.736s-0.04-1.166-0.104-1.737l-4.377-1.557c-0.218-0.716-0.504-1.401-0.851-2.05l1.993-4.192c-0.725-0.91-1.549-1.734-2.458-2.459l-4.193,1.994c-0.647-0.347-1.334-0.632-2.049-0.849l-1.558-4.378C17.165,0.708,16.588,0.667,16,0.667s-1.166,0.041-1.737,0.105L12.707,5.15c-0.716,0.217-1.401,0.502-2.05,0.849L6.464,4.005C5.554,4.73,4.73,5.554,4.005,6.464l1.994,4.192c-0.347,0.648-0.632,1.334-0.849,2.05l-4.378,1.557C0.708,14.834,0.667,15.412,0.667,16s0.041,1.165,0.105,1.736l4.378,1.558c0.217,0.715,0.502,1.401,0.849,2.049l-1.994,4.193c0.725,0.909,1.549,1.733,2.459,2.458l4.192-1.993c0.648,0.347,1.334,0.633,2.05,0.851l1.557,4.377c0.571,0.064,1.148,0.104,1.737,0.104c0.588,0,1.165-0.04,1.736-0.104l1.558-4.377c0.715-0.218,1.399-0.504,2.049-0.851l4.193,1.993c0.909-0.725,1.733-1.549,2.458-2.458l-1.993-4.193c0.347-0.647,0.633-1.334,0.851-2.049L31.229,17.736zM16,20.871c-2.69,0-4.872-2.182-4.872-4.871c0-2.69,2.182-4.872,4.872-4.872c2.689,0,4.871,2.182,4.871,4.872C20.871,18.689,18.689,20.871,16,20.871z"></path><title>Link options.</title></g></g></g></g><!--z-index:19--><g   id="j_265" ><path  stroke="#aaaaaa" d="M 591 465 L 737 597 C 741.6666666666666 601.6666666666666 747.3333333333333 604 754 604 L 950 609" id="v-3098" stroke-width="2" stroke-dasharray="30 30" fill="none" style="opacity: 1;"></path><path  fill="black" stroke="black" d="M 0 0 0 0" transform="matrix(0.7410973598907791,0.6713975745881994,-0.6713975745881994,0.7410973598907791,590.5700073242188,465)"></path><path  fill="#aaaaaa" stroke="#aaaaaa" d="M 20 0 L 0 10 L 20 20 z" id="v-3100" transform="matrix(-0.9996741647851131,-0.02552575681907375,0.02552575681907375,-0.9996741647851131,949.7447189429417,619.2567599582294)" style="opacity: 1;"></path><path  d="M 591 465 L 737 597 C 741.6666666666666 601.6666666666666 747.3333333333333 604 754 604 L 950 609" id="v-3099" fill="none" style="cursor: auto; pointer-events: visiblepainted;"></path><g ><g id="v-3092"  label-idx="0" cursor="move" transform="matrix(1,0,0,1,744.4191284179688,602.110595703125)" style="cursor: default; opacity: 1;"><rect joint-selector="rect" id="v-3095" fill="#111111" rx="3" ry="3" pointer-events="none" width="186.4832763671875" height="61.51533508300781" transform="matrix(1,0,0,1,-93.2,-30.8)"></rect><text joint-selector="text" id="v-3094" font-size="24px" xml:space="preserve" y="0.8em" fill="#aaaaaa" text-anchor="middle" pointer-events="none" font-family="Open Sans" font-weight="normal" transform="matrix(1,0,0,1,0,-23.8)"><tspan dy="0" >requests file and</tspan><tspan dy="1.2em" x="0" >its informations</tspan></text></g><g id="v-3093"  label-idx="1" cursor="move" transform="matrix(1,0,0,1,734.4191284179688,642.9105834960938)" style="cursor: default; opacity: 1;"><rect joint-selector="rect" id="v-3097" fill="#ffffff" rx="3" ry="3"  width="0" height="0" transform="matrix(1,0,0,1,0,0)" display="none"></rect><text joint-selector="text" id="v-3096" fill="#000000" font-size="14" text-anchor="middle" pointer-events="none"></text></g></g><g  display="none" style="display: none;"><g  transform="translate(744, 604)" id="v-3089"><circle  idx="0" r="10"></circle><path  idx="0" d="M16,5.333c-7.732,0-14,4.701-14,10.5c0,1.982,0.741,3.833,2.016,5.414L2,25.667l5.613-1.441c2.339,1.317,5.237,2.107,8.387,2.107c7.732,0,14-4.701,14-10.5C30,10.034,23.732,5.333,16,5.333z" transform="translate(5, -33)"></path><path  idx="0" transform="scale(.8) translate(9.5, -37)" d="M24.778,21.419 19.276,15.917 24.777,10.415 21.949,7.585 16.447,13.087 10.945,7.585 8.117,10.415 13.618,15.917 8.116,21.419 10.946,24.248 16.447,18.746 21.948,24.248z"><title>Remove vertex.</title></path></g></g><g  id="v-3102" display="none"><g  id="v-3090"><path  end="source" d="M 26 0 L 0 13 L 26 26 z"></path></g><g  id="v-3091"><path  end="target" d="M 26 0 L 0 13 L 26 26 z"></path></g></g><g  id="v-3101" display="none"><g  id="v-3088" transform="translate(620.6710584379473, 491.8258884507469) "><g  event="remove"><circle r="11"></circle><path transform="scale(.8) translate(-16, -16)" d="M24.778,21.419 19.276,15.917 24.777,10.415 21.949,7.585 16.447,13.087 10.945,7.585 8.117,10.415 13.618,15.917 8.116,21.419 10.946,24.248 16.447,18.746 21.948,24.248z"></path><title>Remove link.</title></g><g  event="link:options"><circle r="11" transform="translate(25)"></circle><path fill="white" transform="scale(.55) translate(29, -16)" d="M31.229,17.736c0.064-0.571,0.104-1.148,0.104-1.736s-0.04-1.166-0.104-1.737l-4.377-1.557c-0.218-0.716-0.504-1.401-0.851-2.05l1.993-4.192c-0.725-0.91-1.549-1.734-2.458-2.459l-4.193,1.994c-0.647-0.347-1.334-0.632-2.049-0.849l-1.558-4.378C17.165,0.708,16.588,0.667,16,0.667s-1.166,0.041-1.737,0.105L12.707,5.15c-0.716,0.217-1.401,0.502-2.05,0.849L6.464,4.005C5.554,4.73,4.73,5.554,4.005,6.464l1.994,4.192c-0.347,0.648-0.632,1.334-0.849,2.05l-4.378,1.557C0.708,14.834,0.667,15.412,0.667,16s0.041,1.165,0.105,1.736l4.378,1.558c0.217,0.715,0.502,1.401,0.849,2.049l-1.994,4.193c0.725,0.909,1.549,1.733,2.459,2.458l4.192-1.993c0.648,0.347,1.334,0.633,2.05,0.851l1.557,4.377c0.571,0.064,1.148,0.104,1.737,0.104c0.588,0,1.165-0.04,1.736-0.104l1.558-4.377c0.715-0.218,1.399-0.504,2.049-0.851l4.193,1.993c0.909-0.725,1.733-1.549,2.458-2.458l-1.993-4.193c0.347-0.647,0.633-1.334,0.851-2.049L31.229,17.736zM16,20.871c-2.69,0-4.872-2.182-4.872-4.871c0-2.69,2.182-4.872,4.872-4.872c2.689,0,4.871,2.182,4.871,4.872C20.871,18.689,18.689,20.871,16,20.871z"></path><title>Link options.</title></g></g></g></g><!--z-index:20--><g   id="j_266" ><path  stroke="#aaaaaa" d="M 1009 465 L 862 332 C 857.3333333333333 327.3333333333333 851.6666666666666 325 845 325 L 650 320" id="v-3116" stroke-width="2" stroke-dasharray="30 30" fill="none" style="opacity: 1;"></path><path  fill="black" stroke="black" d="M 0 0 0 0" transform="matrix(-0.7409809920657726,-0.6715260005370031,0.6715260005370031,-0.7409809920657726,1009.47998046875,465)"></path><path  fill="#aaaaaa" stroke="#aaaaaa" d="M 20 0 L 0 10 L 20 20 z" id="v-3118" transform="matrix(0.9997294031298876,0.023261997282232775,-0.023261997282232775,0.9997294031298876,650.2326403946483,310.23270196267566)" style="opacity: 1;"></path><path  d="M 1009 465 L 862 332 C 857.3333333333333 327.3333333333333 851.6666666666666 325 845 325 L 650 320" id="v-3117" fill="none" style="cursor: auto; pointer-events: visiblepainted;"></path><g ><g id="v-3110"  label-idx="0" cursor="move" transform="matrix(1,0,0,1,855.6565551757812,327.38726806640625)" style="cursor: default; opacity: 1;"><rect joint-selector="rect" id="v-3113" fill="#111111" rx="3" ry="3" pointer-events="none" width="167.3421173095703" height="61.51533508300781" transform="matrix(1,0,0,1,-84.5,-30.8)"></rect><text joint-selector="text" id="v-3112" font-size="24px" xml:space="preserve" y="0.8em" fill="#aaaaaa" text-anchor="middle" pointer-events="none" font-family="Open Sans" font-weight="normal" transform="matrix(1,0,0,1,0,-23.8)"><tspan dy="0" >give file and its</tspan><tspan dy="1.2em" x="0" >informations</tspan></text></g><g id="v-3111"  label-idx="1" cursor="move" transform="matrix(1,0,0,1,845.6565551757812,368.187255859375)" style="cursor: default; opacity: 1;"><rect joint-selector="rect" id="v-3115" fill="#ffffff" rx="3" ry="3"  width="0" height="0" transform="matrix(1,0,0,1,0,0)" display="none"></rect><text joint-selector="text" id="v-3114" fill="#000000" font-size="14" text-anchor="middle" pointer-events="none"></text></g></g><g  display="none" style="display: none;"><g  transform="translate(855, 325)" id="v-3107"><circle  idx="0" r="10"></circle><path  idx="0" d="M16,5.333c-7.732,0-14,4.701-14,10.5c0,1.982,0.741,3.833,2.016,5.414L2,25.667l5.613-1.441c2.339,1.317,5.237,2.107,8.387,2.107c7.732,0,14-4.701,14-10.5C30,10.034,23.732,5.333,16,5.333z" transform="translate(5, -33)"></path><path  idx="0" transform="scale(.8) translate(9.5, -37)" d="M24.778,21.419 19.276,15.917 24.777,10.415 21.949,7.585 16.447,13.087 10.945,7.585 8.117,10.415 13.618,15.917 8.116,21.419 10.946,24.248 16.447,18.746 21.948,24.248z"><title>Remove vertex.</title></path></g></g><g  id="v-3120" display="none"><g  id="v-3108"><path  end="source" d="M 26 0 L 0 13 L 26 26 z"></path></g><g  id="v-3109"><path  end="target" d="M 26 0 L 0 13 L 26 26 z"></path></g></g><g  id="v-3119" display="none"><g  id="v-3106" transform="translate(979.3385688350492, 438.163467041235) "><g  event="remove"><circle r="11"></circle><path transform="scale(.8) translate(-16, -16)" d="M24.778,21.419 19.276,15.917 24.777,10.415 21.949,7.585 16.447,13.087 10.945,7.585 8.117,10.415 13.618,15.917 8.116,21.419 10.946,24.248 16.447,18.746 21.948,24.248z"></path><title>Remove link.</title></g><g  event="link:options"><circle r="11" transform="translate(25)"></circle><path fill="white" transform="scale(.55) translate(29, -16)" d="M31.229,17.736c0.064-0.571,0.104-1.148,0.104-1.736s-0.04-1.166-0.104-1.737l-4.377-1.557c-0.218-0.716-0.504-1.401-0.851-2.05l1.993-4.192c-0.725-0.91-1.549-1.734-2.458-2.459l-4.193,1.994c-0.647-0.347-1.334-0.632-2.049-0.849l-1.558-4.378C17.165,0.708,16.588,0.667,16,0.667s-1.166,0.041-1.737,0.105L12.707,5.15c-0.716,0.217-1.401,0.502-2.05,0.849L6.464,4.005C5.554,4.73,4.73,5.554,4.005,6.464l1.994,4.192c-0.347,0.648-0.632,1.334-0.849,2.05l-4.378,1.557C0.708,14.834,0.667,15.412,0.667,16s0.041,1.165,0.105,1.736l4.378,1.558c0.217,0.715,0.502,1.401,0.849,2.049l-1.994,4.193c0.725,0.909,1.549,1.733,2.459,2.458l4.192-1.993c0.648,0.347,1.334,0.633,2.05,0.851l1.557,4.377c0.571,0.064,1.148,0.104,1.737,0.104c0.588,0,1.165-0.04,1.736-0.104l1.558-4.377c0.715-0.218,1.399-0.504,2.049-0.851l4.193,1.993c0.909-0.725,1.733-1.549,2.458-2.458l-1.993-4.193c0.347-0.647,0.633-1.334,0.851-2.049L31.229,17.736zM16,20.871c-2.69,0-4.872-2.182-4.872-4.871c0-2.69,2.182-4.872,4.872-4.872c2.689,0,4.871,2.182,4.871,4.872C20.871,18.689,18.689,20.871,16,20.871z"></path><title>Link options.</title></g></g></g></g><!--z-index:21--><g   id="j_267" ><path  stroke="#aaaaaa" d="M 950 620 L 754 625 C 747.3333333333333 625 741.6666666666666 627.3333333333333 737 632 L 590 765" id="v-3134" stroke-width="2" stroke-dasharray="30 30" fill="none" style="opacity: 1;"></path><path  fill="black" stroke="black" d="M 0 0 0 0" transform="matrix(-0.999730901461055,0.02319751417428114,-0.02319751417428114,-0.999730901461055,950,620.219970703125)"></path><path  fill="#aaaaaa" stroke="#aaaaaa" d="M 20 0 L 0 10 L 20 20 z" id="v-3136" transform="matrix(0.7399401598691556,-0.6726726988757669,0.6726726988757669,0.7399401598691556,583.2732854750507,757.6005797845975)" style="opacity: 1;"></path><path  d="M 950 620 L 754 625 C 747.3333333333333 625 741.6666666666666 627.3333333333333 737 632 L 590 765" id="v-3135" fill="none" style="cursor: auto; pointer-events: visiblepainted;"></path><g ><g id="v-3128"  label-idx="0" cursor="move" transform="matrix(1,0,0,1,743.7642211914062,627.1842041015625)" style="cursor: default; opacity: 1;"><rect joint-selector="rect" id="v-3131" fill="#111111" rx="3" ry="3" pointer-events="none" width="186.91188049316406" height="61.51533508300781" transform="matrix(1,0,0,1,-93.5,-30.8)"></rect><text joint-selector="text" id="v-3130" font-size="24px" xml:space="preserve" y="0.8em" fill="#aaaaaa" text-anchor="middle" pointer-events="none" font-family="Open Sans" font-weight="normal" transform="matrix(1,0,0,1,0,-23.8)"><tspan dy="0" >sends file and its</tspan><tspan dy="1.2em" x="0" >informations</tspan></text></g><g id="v-3129"  label-idx="1" cursor="move" transform="matrix(1,0,0,1,733.7642211914062,667.9841918945312)" style="cursor: default; opacity: 1;"><rect joint-selector="rect" id="v-3133" fill="#ffffff" rx="3" ry="3"  width="0" height="0" transform="matrix(1,0,0,1,0,0)" display="none"></rect><text joint-selector="text" id="v-3132" fill="#000000" font-size="14" text-anchor="middle" pointer-events="none"></text></g></g><g  display="none" style="display: none;"><g  transform="translate(744, 625)" id="v-3125"><circle  idx="0" r="10"></circle><path  idx="0" d="M16,5.333c-7.732,0-14,4.701-14,10.5c0,1.982,0.741,3.833,2.016,5.414L2,25.667l5.613-1.441c2.339,1.317,5.237,2.107,8.387,2.107c7.732,0,14-4.701,14-10.5C30,10.034,23.732,5.333,16,5.333z" transform="translate(5, -33)"></path><path  idx="0" transform="scale(.8) translate(9.5, -37)" d="M24.778,21.419 19.276,15.917 24.777,10.415 21.949,7.585 16.447,13.087 10.945,7.585 8.117,10.415 13.618,15.917 8.116,21.419 10.946,24.248 16.447,18.746 21.948,24.248z"><title>Remove vertex.</title></path></g></g><g  id="v-3138" display="none"><g  id="v-3126"><path  end="source" d="M 26 0 L 0 13 L 26 26 z"></path></g><g  id="v-3127"><path  end="target" d="M 26 0 L 0 13 L 26 26 z"></path></g></g><g  id="v-3137" display="none"><g  id="v-3124" transform="translate(910.0130090611549, 621.0200762994604) "><g  event="remove"><circle r="11"></circle><path transform="scale(.8) translate(-16, -16)" d="M24.778,21.419 19.276,15.917 24.777,10.415 21.949,7.585 16.447,13.087 10.945,7.585 8.117,10.415 13.618,15.917 8.116,21.419 10.946,24.248 16.447,18.746 21.948,24.248z"></path><title>Remove link.</title></g><g  event="link:options"><circle r="11" transform="translate(25)"></circle><path fill="white" transform="scale(.55) translate(29, -16)" d="M31.229,17.736c0.064-0.571,0.104-1.148,0.104-1.736s-0.04-1.166-0.104-1.737l-4.377-1.557c-0.218-0.716-0.504-1.401-0.851-2.05l1.993-4.192c-0.725-0.91-1.549-1.734-2.458-2.459l-4.193,1.994c-0.647-0.347-1.334-0.632-2.049-0.849l-1.558-4.378C17.165,0.708,16.588,0.667,16,0.667s-1.166,0.041-1.737,0.105L12.707,5.15c-0.716,0.217-1.401,0.502-2.05,0.849L6.464,4.005C5.554,4.73,4.73,5.554,4.005,6.464l1.994,4.192c-0.347,0.648-0.632,1.334-0.849,2.05l-4.378,1.557C0.708,14.834,0.667,15.412,0.667,16s0.041,1.165,0.105,1.736l4.378,1.558c0.217,0.715,0.502,1.401,0.849,2.049l-1.994,4.193c0.725,0.909,1.549,1.733,2.459,2.458l4.192-1.993c0.648,0.347,1.334,0.633,2.05,0.851l1.557,4.377c0.571,0.064,1.148,0.104,1.737,0.104c0.588,0,1.165-0.04,1.736-0.104l1.558-4.377c0.715-0.218,1.399-0.504,2.049-0.851l4.193,1.993c0.909-0.725,1.733-1.549,2.458-2.458l-1.993-4.193c0.347-0.647,0.633-1.334,0.851-2.049L31.229,17.736zM16,20.871c-2.69,0-4.872-2.182-4.872-4.871c0-2.69,2.182-4.872,4.872-4.872c2.689,0,4.871,2.182,4.871,4.872C20.871,18.689,18.689,20.871,16,20.871z"></path><title>Link options.</title></g></g></g></g><!--z-index:22--><!--z-index:23--><!--z-index:24--><!--z-index:25--><!--z-index:26--><!--z-index:27--><!--z-index:28--><!--z-index:29--><!--z-index:30--><!--z-index:31--><!--z-index:32--><!--z-index:33--><!--z-index:34--><!--z-index:35--><!--z-index:36--><!--z-index:37--><!--z-index:38--><!--z-index:39--><!--z-index:40--><!--z-index:41--><!--z-index:42--><!--z-index:43--></g><g ></g><g ></g><g ></g></g></svg>