<svg xmlns="http://www.w3.org/2000/svg" xmlns:xlink="http://www.w3.org/1999/xlink" version="1.1" viewBox="0 0 2390 1937" style="background: #111111"><defs><style>@import url(https://fonts.googleapis.com/css?family=Open+Sans:400,700);</style></defs><defs joint-selector="defs"></defs><g joint-selector="layers"  transform="matrix(1,0,0,1,0,0)"><g ></g><g ><!--z-index:0--><!--z-index:1--><!--z-index:2--><!--z-index:3--><!--z-index:4--><!--z-index:5--><!--z-index:6--><!--z-index:7--><!--z-index:8--><!--z-index:9--><!--z-index:10--><!--z-index:11--><!--z-index:12--><!--z-index:13--><!--z-index:14--><!--z-index:15--><!--z-index:16--><!--z-index:17--><!--z-index:18--><g   id="j_225"  transform="translate(20,1900.6)"><g id="v-2638"><text  id="v-2639" font-size="22px" xml:space="preserve" y="0.8em" font-weight="normal" text-anchor="start" fill="#777777" pointer-events="none" display="block" font-family="Open Sans"><tspan dy="0" >neděle 16. března 2025 v 21:43 středoevropský standardní čas</tspan></text></g></g><!--z-index:19--><g   id="j_224"  transform="translate(20,1857.3999999999999)"><g id="v-2636"><text  id="v-2637" font-size="36px" xml:space="preserve" y="0.8em" font-weight="normal" text-anchor="start" fill="#bbbbbb" pointer-events="none" display="block" font-family="Open Sans"><tspan dy="0" >[Container] pokusHttp</tspan></text></g></g><!--z-index:20--><g   id="j_226"  transform="translate(1744,1302)" style=""><g  id="v-2640" style="opacity: 1;"><rect  x="0" y="160" width="400" height="240" rx="70" id="v-2642" stroke="#2d3db6" stroke-width="2" pointer-events="visiblePainted" fill="#3244ca" style="fill: rgb(50, 68, 202); stroke: rgb(45, 61, 182);"></rect><circle  cx="200" cy="88.88888888888889" r="88.88888888888889" id="v-2641" stroke="#2d3db6" stroke-width="2" pointer-events="visiblePainted" fill="#3244ca" style="fill: rgb(50, 68, 202); stroke: rgb(45, 61, 182);"></circle><line  x1="80" y1="266.6666666666667" x2="80" y2="400" id="v-2648" stroke="#2d3db6" stroke-width="2" style="stroke: rgb(45, 61, 182);"></line><line  x1="320" y1="266.6666666666667" x2="320" y2="400" id="v-2649" stroke="#2d3db6" stroke-width="2" style="stroke: rgb(45, 61, 182);"></line><text  id="v-2643" font-size="34" xml:space="preserve" y="0.8em" font-weight="bold" text-anchor="middle" pointer-events="visible" font-family="Open Sans" fill="#ffffff" transform="matrix(1,0,0,1,200,251.9)" style="fill: rgb(255, 255, 255);"><tspan dy="0" >User</tspan></text><text  id="v-2644" font-size="17" xml:space="preserve" y="0.8em" text-anchor="middle" font-family="Open Sans" fill="#ffffff" transform="matrix(1,0,0,1,200,292.7)" style="fill: rgb(255, 255, 255);"><tspan dy="0" >[Person]</tspan></text><text  id="v-2645" font-size="24" xml:space="preserve" display="none" y="0.8em" text-anchor="middle" font-family="Open Sans" fill="#ffffff" transform="matrix(1,0,0,1,200,313.1)" style="fill: rgb(255, 255, 255);"><tspan dy="0" style="fill-opacity: 0; stroke-opacity: 0;" >-</tspan></text><g  id="v-2646" font-weight="normal" text-anchor="middle" color="#ffffff" transform="matrix(1,0,0,1,197.5,368)" display="none" style="fill: rgb(255, 255, 255);"><g ></g><g ></g><g ></g><g ></g></g><image  id="v-2647"></image></g></g><!--z-index:21--><g   id="j_228"  transform="translate(199,174)" style=""><g id="v-2657"><rect  id="v-2658" width="1990" height="1011" rx="0" ry="0" fill="#111111" stroke="#5a67c2" stroke-width="1" stroke-dasharray="20,20" pointer-events="none"></rect><text  id="v-2659" font-size="24px" xml:space="preserve" y="972" font-weight="normal" fill="#5a67c2" text-anchor="start" pointer-events="visible" font-family="Open Sans" transform="matrix(1,0,0,1,15,0)"><tspan dy="0" >pokusHttp</tspan></text><text  id="v-2660" font-size="17px" xml:space="preserve" y="996" font-weight="normal" fill="#5a67c2" text-anchor="start" pointer-events="visible" font-family="Open Sans" transform="matrix(1,0,0,1,15,0)"><tspan dy="0" >[Software System]</tspan></text><image  id="v-2661" pointer-events="visible"></image></g></g><!--z-index:22--><g   id="j_227"  transform="translate(969,794)" style=""><g  id="v-2650" style="opacity: 1;"><rect  id="v-2651" rx="1" ry="1" stroke="#5a67c2" stroke-width="2" pointer-events="visiblePainted" fill="#6472d8" width="450" height="300" style="fill: rgb(100, 114, 216); stroke: rgb(90, 103, 194);"></rect><text  id="v-2652" font-size="34" xml:space="preserve" y="0.8em" font-weight="bold" text-anchor="middle" pointer-events="visible" font-family="Open Sans" fill="#ffffff" transform="matrix(1,0,0,1,225,121.9)" style="fill: rgb(255, 255, 255);"><tspan dy="0" >app UI</tspan></text><text  id="v-2653" font-size="17" xml:space="preserve" y="0.8em" text-anchor="middle" font-family="Open Sans" fill="#ffffff" transform="matrix(1,0,0,1,225,162.7)" style="fill: rgb(255, 255, 255);"><tspan dy="0" >[Container]</tspan></text><text  id="v-2654" font-size="24" xml:space="preserve" display="none" y="0.8em" text-anchor="middle" font-family="Open Sans" fill="#ffffff" transform="matrix(1,0,0,1,225,183.1)" style="fill: rgb(255, 255, 255);"><tspan dy="0" style="fill-opacity: 0; stroke-opacity: 0;" >-</tspan></text><g  id="v-2655" color="#ffffff" transform="matrix(1,0,0,1,210,268)" display="none" style="fill: rgb(255, 255, 255);"><g  transform="translate(5 0)"><svg xmlns="http://www.w3.org/2000/svg" width="20" height="20" fill="currentColor" viewBox="0 0 16 16"><path fill-rule="evenodd" d="M6.5 12a5.5 5.5 0 1 0 0-11 5.5 5.5 0 0 0 0 11zM13 6.5a6.5 6.5 0 1 1-13 0 6.5 6.5 0 0 1 13 0z"></path><path d="M10.344 11.742c.03.04.062.078.098.115l3.85 3.85a1 1 0 0 0 1.415-1.414l-3.85-3.85a1.007 1.007 0 0 0-.115-.1 6.538 6.538 0 0 1-1.398 1.4z"></path><path fill-rule="evenodd" d="M6.5 3a.5.5 0 0 1 .5.5V6h2.5a.5.5 0 0 1 0 1H7v2.5a.5.5 0 0 1-1 0V7H3.5a.5.5 0 0 1 0-1H6V3.5a.5.5 0 0 1 .5-.5z"></path></svg></g><g ></g><g ></g><g ></g></g><image  id="v-2656"></image></g></g><!--z-index:23--><g   id="j_229"  transform="translate(969,194)" style=""><g  id="v-2662" style="opacity: 1;"><path  d="M 0,30 a 225,30 0,0,0 450 0 a 225,30 0,0,0 -450 0 l 0,240 a 225,30 0,0,0 450 0 l 0,-240" id="v-2663" stroke="#3844a4" stroke-width="2" pointer-events="visiblePainted" fill="#3e4cb6" style="fill: rgb(62, 76, 182); stroke: rgb(56, 68, 164);"></path><rect  id="v-2664" stroke-width="0" pointer-events="visiblePainted" fill="none" stroke="none" width="450" height="270" x="0" y="30"></rect><text  id="v-2665" font-size="34" xml:space="preserve" y="0.8em" font-weight="bold" text-anchor="middle" pointer-events="visible" font-family="Open Sans" fill="#ffffff" transform="matrix(1,0,0,1,225,144.4)" style="fill: rgb(255, 255, 255);"><tspan dy="0" >file database</tspan></text><text  id="v-2666" font-size="17" xml:space="preserve" y="0.8em" text-anchor="middle" font-family="Open Sans" fill="#ffffff" transform="matrix(1,0,0,1,225,185.2)" style="fill: rgb(255, 255, 255);"><tspan dy="0" >[Container]</tspan></text><text  id="v-2667" font-size="24" xml:space="preserve" display="none" y="0.8em" text-anchor="middle" font-family="Open Sans" fill="#ffffff" transform="matrix(1,0,0,1,225,205.6)" style="fill: rgb(255, 255, 255);"><tspan dy="0" style="fill-opacity: 0; stroke-opacity: 0;" >-</tspan></text><g  id="v-2668" font-weight="normal" text-anchor="middle" color="#ffffff" transform="matrix(1,0,0,1,210,268)" display="none" style="fill: rgb(255, 255, 255);"><g  transform="translate(5 0)"><svg xmlns="http://www.w3.org/2000/svg" width="20" height="20" fill="currentColor" viewBox="0 0 16 16"><path fill-rule="evenodd" d="M6.5 12a5.5 5.5 0 1 0 0-11 5.5 5.5 0 0 0 0 11zM13 6.5a6.5 6.5 0 1 1-13 0 6.5 6.5 0 0 1 13 0z"></path><path d="M10.344 11.742c.03.04.062.078.098.115l3.85 3.85a1 1 0 0 0 1.415-1.414l-3.85-3.85a1.007 1.007 0 0 0-.115-.1 6.538 6.538 0 0 1-1.398 1.4z"></path><path fill-rule="evenodd" d="M6.5 3a.5.5 0 0 1 .5.5V6h2.5a.5.5 0 0 1 0 1H7v2.5a.5.5 0 0 1-1 0V7H3.5a.5.5 0 0 1 0-1H6V3.5a.5.5 0 0 1 .5-.5z"></path></svg></g><g ></g><g ></g><g ></g></g><image  id="v-2669"></image></g></g><!--z-index:24--><g   id="j_230"  transform="translate(1719,194)" style=""><g  id="v-2673" style="opacity: 1;"><rect  id="v-2674" rx="1" ry="1" stroke="#5a67c2" stroke-width="2" pointer-events="visiblePainted" fill="#6472d8" width="450" height="300" style="fill: rgb(100, 114, 216); stroke: rgb(90, 103, 194);"></rect><text  id="v-2675" font-size="34" xml:space="preserve" y="0.8em" font-weight="bold" text-anchor="middle" pointer-events="visible" font-family="Open Sans" fill="#ffffff" transform="matrix(1,0,0,1,225,121.9)" style="fill: rgb(255, 255, 255);"><tspan dy="0" >BackgroundObserver</tspan></text><text  id="v-2676" font-size="17" xml:space="preserve" y="0.8em" text-anchor="middle" font-family="Open Sans" fill="#ffffff" transform="matrix(1,0,0,1,225,162.7)" style="fill: rgb(255, 255, 255);"><tspan dy="0" >[Container]</tspan></text><text  id="v-2677" font-size="24" xml:space="preserve" display="none" y="0.8em" text-anchor="middle" font-family="Open Sans" fill="#ffffff" transform="matrix(1,0,0,1,225,183.1)" style="fill: rgb(255, 255, 255);"><tspan dy="0" style="fill-opacity: 0; stroke-opacity: 0;" >-</tspan></text><g  id="v-2678" color="#ffffff" transform="matrix(1,0,0,1,210,268)" display="none" style="fill: rgb(255, 255, 255);"><g  transform="translate(5 0)"><svg xmlns="http://www.w3.org/2000/svg" width="20" height="20" fill="currentColor" viewBox="0 0 16 16"><path fill-rule="evenodd" d="M6.5 12a5.5 5.5 0 1 0 0-11 5.5 5.5 0 0 0 0 11zM13 6.5a6.5 6.5 0 1 1-13 0 6.5 6.5 0 0 1 13 0z"></path><path d="M10.344 11.742c.03.04.062.078.098.115l3.85 3.85a1 1 0 0 0 1.415-1.414l-3.85-3.85a1.007 1.007 0 0 0-.115-.1 6.538 6.538 0 0 1-1.398 1.4z"></path><path fill-rule="evenodd" d="M6.5 3a.5.5 0 0 1 .5.5V6h2.5a.5.5 0 0 1 0 1H7v2.5a.5.5 0 0 1-1 0V7H3.5a.5.5 0 0 1 0-1H6V3.5a.5.5 0 0 1 .5-.5z"></path></svg></g><g ></g><g ></g><g ></g></g><image  id="v-2679"></image></g></g><!--z-index:25--><g   id="j_231"  transform="translate(219,494)" style=""><g  id="v-2683" style="opacity: 1;"><rect  id="v-2684" rx="1" ry="1" stroke="#5a67c2" stroke-width="2" pointer-events="visiblePainted" fill="#6472d8" width="450" height="300" style="fill: rgb(100, 114, 216); stroke: rgb(90, 103, 194);"></rect><text  id="v-2685" font-size="34" xml:space="preserve" y="0.8em" font-weight="bold" text-anchor="middle" pointer-events="visible" font-family="Open Sans" fill="#ffffff" transform="matrix(1,0,0,1,225,121.9)" style="fill: rgb(255, 255, 255);"><tspan dy="0" >File Controller api</tspan></text><text  id="v-2686" font-size="17" xml:space="preserve" y="0.8em" text-anchor="middle" font-family="Open Sans" fill="#ffffff" transform="matrix(1,0,0,1,225,162.7)" style="fill: rgb(255, 255, 255);"><tspan dy="0" >[Container]</tspan></text><text  id="v-2687" font-size="24" xml:space="preserve" display="none" y="0.8em" text-anchor="middle" font-family="Open Sans" fill="#ffffff" transform="matrix(1,0,0,1,225,183.1)" style="fill: rgb(255, 255, 255);"><tspan dy="0" style="fill-opacity: 0; stroke-opacity: 0;" >-</tspan></text><g  id="v-2688" color="#ffffff" transform="matrix(1,0,0,1,210,268)" display="none" style="fill: rgb(255, 255, 255);"><g  transform="translate(5 0)"><svg xmlns="http://www.w3.org/2000/svg" width="20" height="20" fill="currentColor" viewBox="0 0 16 16"><path fill-rule="evenodd" d="M6.5 12a5.5 5.5 0 1 0 0-11 5.5 5.5 0 0 0 0 11zM13 6.5a6.5 6.5 0 1 1-13 0 6.5 6.5 0 0 1 13 0z"></path><path d="M10.344 11.742c.03.04.062.078.098.115l3.85 3.85a1 1 0 0 0 1.415-1.414l-3.85-3.85a1.007 1.007 0 0 0-.115-.1 6.538 6.538 0 0 1-1.398 1.4z"></path><path fill-rule="evenodd" d="M6.5 3a.5.5 0 0 1 .5.5V6h2.5a.5.5 0 0 1 0 1H7v2.5a.5.5 0 0 1-1 0V7H3.5a.5.5 0 0 1 0-1H6V3.5a.5.5 0 0 1 .5-.5z"></path></svg></g><g ></g><g ></g><g ></g></g><image  id="v-2689"></image></g></g><!--z-index:26--><g   id="j_232" ><path  stroke="#aaaaaa" d="M 1801 1302 L 1664 1110 C 1660 1104.6666666666665 1655 1101 1649 1099 L 1419 1021" id="v-2703" stroke-width="2" stroke-dasharray="30 30" fill="none" style="opacity: 1;"></path><path  fill="black" stroke="black" d="M 0 0 0 0" transform="matrix(-0.5816229516965833,-0.8134585066613749,0.8134585066613749,-0.5816229516965833,1801,1302)"></path><path  fill="#aaaaaa" stroke="#aaaaaa" d="M 20 0 L 0 10 L 20 20 z" id="v-2705" transform="matrix(0.9466277954429694,0.3223287404107549,-0.3223287404107549,0.9466277954429694,1422.2233180434278,1011.1536963602127)" style="opacity: 1;"></path><path  d="M 1801 1302 L 1664 1110 C 1660 1104.6666666666665 1655 1101 1649 1099 L 1419 1021" id="v-2704" fill="none" style="cursor: auto; pointer-events: visiblepainted;"></path><g ><g id="v-2697"  label-idx="0" cursor="move" transform="matrix(1,0,0,1,1654.4263916015625,1101.4168701171875)" style="cursor: default; opacity: 1;"><rect joint-selector="rect" id="v-2700" fill="#111111" rx="3" ry="3" pointer-events="none" width="178.2047119140625" height="62.939714431762695" transform="matrix(1,0,0,1,-89.1,-31.4)"></rect><text joint-selector="text" id="v-2699" font-size="24px" xml:space="preserve" y="0.8em" fill="#aaaaaa" text-anchor="middle" pointer-events="none" font-family="Open Sans" font-weight="normal" transform="matrix(1,0,0,1,0,-23.8)"><tspan dy="0" >uploads file and</tspan><tspan dy="1.2em" x="0" >its informations</tspan></text></g><g id="v-2698"  label-idx="1" cursor="move" transform="matrix(1,0,0,1,1644.4263916015625,1142.2169189453125)" style="cursor: default; opacity: 1;"><rect joint-selector="rect" id="v-2702" fill="#ffffff" rx="3" ry="3"  width="0" height="0" transform="matrix(1,0,0,1,0,0)" display="none"></rect><text joint-selector="text" id="v-2701" fill="#000000" font-size="14" text-anchor="middle" pointer-events="none"></text></g></g><g  display="none" style="display: none;"><g  transform="translate(1658, 1102)" id="v-2837"><circle  idx="0" r="10"></circle><path  idx="0" d="M16,5.333c-7.732,0-14,4.701-14,10.5c0,1.982,0.741,3.833,2.016,5.414L2,25.667l5.613-1.441c2.339,1.317,5.237,2.107,8.387,2.107c7.732,0,14-4.701,14-10.5C30,10.034,23.732,5.333,16,5.333z" transform="translate(5, -33)"></path><path  idx="0" transform="scale(.8) translate(9.5, -37)" d="M24.778,21.419 19.276,15.917 24.777,10.415 21.949,7.585 16.447,13.087 10.945,7.585 8.117,10.415 13.618,15.917 8.116,21.419 10.946,24.248 16.447,18.746 21.948,24.248z"><title>Remove vertex.</title></path></g></g><g  id="v-2707" display="none"><g  id="v-2695"><path  end="source" d="M 26 0 L 0 13 L 26 26 z"></path></g><g  id="v-2696"><path  end="target" d="M 26 0 L 0 13 L 26 26 z"></path></g></g><g  id="v-2706" display="none"><g  id="v-2693" transform="translate(1777.7665171325575, 1269.4392064923434) "><g  event="remove"><circle r="11"></circle><path transform="scale(.8) translate(-16, -16)" d="M24.778,21.419 19.276,15.917 24.777,10.415 21.949,7.585 16.447,13.087 10.945,7.585 8.117,10.415 13.618,15.917 8.116,21.419 10.946,24.248 16.447,18.746 21.948,24.248z"></path><title>Remove link.</title></g><g  event="link:options"><circle r="11" transform="translate(25)"></circle><path fill="white" transform="scale(.55) translate(29, -16)" d="M31.229,17.736c0.064-0.571,0.104-1.148,0.104-1.736s-0.04-1.166-0.104-1.737l-4.377-1.557c-0.218-0.716-0.504-1.401-0.851-2.05l1.993-4.192c-0.725-0.91-1.549-1.734-2.458-2.459l-4.193,1.994c-0.647-0.347-1.334-0.632-2.049-0.849l-1.558-4.378C17.165,0.708,16.588,0.667,16,0.667s-1.166,0.041-1.737,0.105L12.707,5.15c-0.716,0.217-1.401,0.502-2.05,0.849L6.464,4.005C5.554,4.73,4.73,5.554,4.005,6.464l1.994,4.192c-0.347,0.648-0.632,1.334-0.849,2.05l-4.378,1.557C0.708,14.834,0.667,15.412,0.667,16s0.041,1.165,0.105,1.736l4.378,1.558c0.217,0.715,0.502,1.401,0.849,2.049l-1.994,4.193c0.725,0.909,1.549,1.733,2.459,2.458l4.192-1.993c0.648,0.347,1.334,0.633,2.05,0.851l1.557,4.377c0.571,0.064,1.148,0.104,1.737,0.104c0.588,0,1.165-0.04,1.736-0.104l1.558-4.377c0.715-0.218,1.399-0.504,2.049-0.851l4.193,1.993c0.909-0.725,1.733-1.549,2.458-2.458l-1.993-4.193c0.347-0.647,0.633-1.334,0.851-2.049L31.229,17.736zM16,20.871c-2.69,0-4.872-2.182-4.872-4.871c0-2.69,2.182-4.872,4.872-4.872c2.689,0,4.871,2.182,4.871,4.872C20.871,18.689,18.689,20.871,16,20.871z"></path><title>Link options.</title></g></g></g></g><!--z-index:27--><g   id="j_233" ><path  stroke="#aaaaaa" d="M 1028 794 L 881 661 C 876.3333333333333 656.3333333333333 870.6666666666666 654 864 654 L 669 649" id="v-2721" stroke-width="2" stroke-dasharray="30 30" fill="none" style="opacity: 1;"></path><path  fill="black" stroke="black" d="M 0 0 0 0" transform="matrix(-0.7409809920657727,-0.6715260005370032,0.6715260005370032,-0.7409809920657727,1028.47998046875,794)"></path><path  fill="#aaaaaa" stroke="#aaaaaa" d="M 20 0 L 0 10 L 20 20 z" id="v-2723" transform="matrix(0.9997294031298877,0.02326199728223278,-0.02326199728223278,0.9997294031298877,669.2326403946485,639.2327324802538)" style="opacity: 1;"></path><path  d="M 1028 794 L 881 661 C 876.3333333333333 656.3333333333333 870.6666666666666 654 864 654 L 669 649" id="v-2722" fill="none" style="cursor: auto; pointer-events: visiblepainted;"></path><g ><g id="v-2715"  label-idx="0" cursor="move" transform="matrix(1,0,0,1,874.6565551757812,656.3872680664062)" style="cursor: default; opacity: 1;"><rect joint-selector="rect" id="v-2718" fill="#111111" rx="3" ry="3" pointer-events="none" width="187.63497924804688" height="62.939714431762695" transform="matrix(1,0,0,1,-93.4,-31.4)"></rect><text joint-selector="text" id="v-2717" font-size="24px" xml:space="preserve" y="0.8em" fill="#aaaaaa" text-anchor="middle" pointer-events="none" font-family="Open Sans" font-weight="normal" transform="matrix(1,0,0,1,0,-23.8)"><tspan dy="0" >sends file and its</tspan><tspan dy="1.2em" x="0" >informations</tspan></text></g><g id="v-2716"  label-idx="1" cursor="move" transform="matrix(1,0,0,1,864.6565551757812,697.187255859375)" style="cursor: default; opacity: 1;"><rect joint-selector="rect" id="v-2720" fill="#ffffff" rx="3" ry="3"  width="0" height="0" transform="matrix(1,0,0,1,0,0)" display="none"></rect><text joint-selector="text" id="v-2719" fill="#000000" font-size="14" text-anchor="middle" pointer-events="none"></text></g></g><g  display="none" style="display: none;"><g  transform="translate(874, 654)" id="v-2838"><circle  idx="0" r="10"></circle><path  idx="0" d="M16,5.333c-7.732,0-14,4.701-14,10.5c0,1.982,0.741,3.833,2.016,5.414L2,25.667l5.613-1.441c2.339,1.317,5.237,2.107,8.387,2.107c7.732,0,14-4.701,14-10.5C30,10.034,23.732,5.333,16,5.333z" transform="translate(5, -33)"></path><path  idx="0" transform="scale(.8) translate(9.5, -37)" d="M24.778,21.419 19.276,15.917 24.777,10.415 21.949,7.585 16.447,13.087 10.945,7.585 8.117,10.415 13.618,15.917 8.116,21.419 10.946,24.248 16.447,18.746 21.948,24.248z"><title>Remove vertex.</title></path></g></g><g  id="v-2725" display="none"><g  id="v-2713"><path  end="source" d="M 26 0 L 0 13 L 26 26 z"></path></g><g  id="v-2714"><path  end="target" d="M 26 0 L 0 13 L 26 26 z"></path></g></g><g  id="v-2724" display="none"><g  id="v-2711" transform="translate(998.3385688350492, 767.163467041235) "><g  event="remove"><circle r="11"></circle><path transform="scale(.8) translate(-16, -16)" d="M24.778,21.419 19.276,15.917 24.777,10.415 21.949,7.585 16.447,13.087 10.945,7.585 8.117,10.415 13.618,15.917 8.116,21.419 10.946,24.248 16.447,18.746 21.948,24.248z"></path><title>Remove link.</title></g><g  event="link:options"><circle r="11" transform="translate(25)"></circle><path fill="white" transform="scale(.55) translate(29, -16)" d="M31.229,17.736c0.064-0.571,0.104-1.148,0.104-1.736s-0.04-1.166-0.104-1.737l-4.377-1.557c-0.218-0.716-0.504-1.401-0.851-2.05l1.993-4.192c-0.725-0.91-1.549-1.734-2.458-2.459l-4.193,1.994c-0.647-0.347-1.334-0.632-2.049-0.849l-1.558-4.378C17.165,0.708,16.588,0.667,16,0.667s-1.166,0.041-1.737,0.105L12.707,5.15c-0.716,0.217-1.401,0.502-2.05,0.849L6.464,4.005C5.554,4.73,4.73,5.554,4.005,6.464l1.994,4.192c-0.347,0.648-0.632,1.334-0.849,2.05l-4.378,1.557C0.708,14.834,0.667,15.412,0.667,16s0.041,1.165,0.105,1.736l4.378,1.558c0.217,0.715,0.502,1.401,0.849,2.049l-1.994,4.193c0.725,0.909,1.549,1.733,2.459,2.458l4.192-1.993c0.648,0.347,1.334,0.633,2.05,0.851l1.557,4.377c0.571,0.064,1.148,0.104,1.737,0.104c0.588,0,1.165-0.04,1.736-0.104l1.558-4.377c0.715-0.218,1.399-0.504,2.049-0.851l4.193,1.993c0.909-0.725,1.733-1.549,2.458-2.458l-1.993-4.193c0.347-0.647,0.633-1.334,0.851-2.049L31.229,17.736zM16,20.871c-2.69,0-4.872-2.182-4.872-4.871c0-2.69,2.182-4.872,4.872-4.872c2.689,0,4.871,2.182,4.871,4.872C20.871,18.689,18.689,20.871,16,20.871z"></path><title>Link options.</title></g></g></g></g><!--z-index:28--><g   id="j_234" ><path  stroke="#aaaaaa" d="M 669 638 L 864 633 C 870.6666666666666 633 876.3333333333333 630.6666666666666 881 626 L 1028 494" id="v-2739" stroke-width="2" stroke-dasharray="30 30" fill="none" style="opacity: 1;"></path><path  fill="black" stroke="black" d="M 0 0 0 0" transform="matrix(0.9996734846385839,-0.02555237974340333,0.02555237974340333,0.9996734846385839,669,638.239990234375)"></path><path  fill="#aaaaaa" stroke="#aaaaaa" d="M 20 0 L 0 10 L 20 20 z" id="v-2741" transform="matrix(-0.7421398305834732,0.6702450834295867,-0.6702450834295867,-0.7421398305834732,1034.612435565912,501.4214010848201)" style="opacity: 1;"></path><path  d="M 669 638 L 864 633 C 870.6666666666666 633 876.3333333333333 630.6666666666666 881 626 L 1028 494" id="v-2740" fill="none" style="cursor: auto; pointer-events: visiblepainted;"></path><g ><g id="v-2733"  label-idx="0" cursor="move" transform="matrix(1,0,0,1,874.3656616210938,630.7542724609375)" style="cursor: default; opacity: 1;"><rect joint-selector="rect" id="v-2736" fill="#111111" rx="3" ry="3" pointer-events="none" width="183.55764770507812" height="62.939714431762695" transform="matrix(1,0,0,1,-91.4,-31.4)"></rect><text joint-selector="text" id="v-2735" font-size="24px" xml:space="preserve" y="0.8em" fill="#aaaaaa" text-anchor="middle" pointer-events="none" font-family="Open Sans" font-weight="normal" transform="matrix(1,0,0,1,0,-23.8)"><tspan dy="0" >saves file and its</tspan><tspan dy="1.2em" x="0" >informations</tspan></text></g><g id="v-2734"  label-idx="1" cursor="move" transform="matrix(1,0,0,1,864.3656616210938,671.5542602539062)" style="cursor: default; opacity: 1;"><rect joint-selector="rect" id="v-2738" fill="#ffffff" rx="3" ry="3"  width="0" height="0" transform="matrix(1,0,0,1,0,0)" display="none"></rect><text joint-selector="text" id="v-2737" fill="#000000" font-size="14" text-anchor="middle" pointer-events="none"></text></g></g><g  display="none" style="display: none;"><g  transform="translate(874, 633)" id="v-2839"><circle  idx="0" r="10"></circle><path  idx="0" d="M16,5.333c-7.732,0-14,4.701-14,10.5c0,1.982,0.741,3.833,2.016,5.414L2,25.667l5.613-1.441c2.339,1.317,5.237,2.107,8.387,2.107c7.732,0,14-4.701,14-10.5C30,10.034,23.732,5.333,16,5.333z" transform="translate(5, -33)"></path><path  idx="0" transform="scale(.8) translate(9.5, -37)" d="M24.778,21.419 19.276,15.917 24.777,10.415 21.949,7.585 16.447,13.087 10.945,7.585 8.117,10.415 13.618,15.917 8.116,21.419 10.946,24.248 16.447,18.746 21.948,24.248z"><title>Remove vertex.</title></path></g></g><g  id="v-2743" display="none"><g  id="v-2731"><path  end="source" d="M 26 0 L 0 13 L 26 26 z"></path></g><g  id="v-2732"><path  end="target" d="M 26 0 L 0 13 L 26 26 z"></path></g></g><g  id="v-2742" display="none"><g  id="v-2729" transform="translate(708.9868572363791, 636.974695968298) "><g  event="remove"><circle r="11"></circle><path transform="scale(.8) translate(-16, -16)" d="M24.778,21.419 19.276,15.917 24.777,10.415 21.949,7.585 16.447,13.087 10.945,7.585 8.117,10.415 13.618,15.917 8.116,21.419 10.946,24.248 16.447,18.746 21.948,24.248z"></path><title>Remove link.</title></g><g  event="link:options"><circle r="11" transform="translate(25)"></circle><path fill="white" transform="scale(.55) translate(29, -16)" d="M31.229,17.736c0.064-0.571,0.104-1.148,0.104-1.736s-0.04-1.166-0.104-1.737l-4.377-1.557c-0.218-0.716-0.504-1.401-0.851-2.05l1.993-4.192c-0.725-0.91-1.549-1.734-2.458-2.459l-4.193,1.994c-0.647-0.347-1.334-0.632-2.049-0.849l-1.558-4.378C17.165,0.708,16.588,0.667,16,0.667s-1.166,0.041-1.737,0.105L12.707,5.15c-0.716,0.217-1.401,0.502-2.05,0.849L6.464,4.005C5.554,4.73,4.73,5.554,4.005,6.464l1.994,4.192c-0.347,0.648-0.632,1.334-0.849,2.05l-4.378,1.557C0.708,14.834,0.667,15.412,0.667,16s0.041,1.165,0.105,1.736l4.378,1.558c0.217,0.715,0.502,1.401,0.849,2.049l-1.994,4.193c0.725,0.909,1.549,1.733,2.459,2.458l4.192-1.993c0.648,0.347,1.334,0.633,2.05,0.851l1.557,4.377c0.571,0.064,1.148,0.104,1.737,0.104c0.588,0,1.165-0.04,1.736-0.104l1.558-4.377c0.715-0.218,1.399-0.504,2.049-0.851l4.193,1.993c0.909-0.725,1.733-1.549,2.458-2.458l-1.993-4.193c0.347-0.647,0.633-1.334,0.851-2.049L31.229,17.736zM16,20.871c-2.69,0-4.872-2.182-4.872-4.871c0-2.69,2.182-4.872,4.872-4.872c2.689,0,4.871,2.182,4.871,4.872C20.871,18.689,18.689,20.871,16,20.871z"></path><title>Link options.</title></g></g></g></g><!--z-index:29--><g   id="j_235" ><path  stroke="#aaaaaa" d="M 1719 254 L 1578 198 C 1572 195.33333333333331 1566 195.33333333333331 1560 198 L 1419 254" id="v-2757" stroke-width="2" stroke-dasharray="30 30" fill="none" style="opacity: 1;"></path><path  fill="black" stroke="black" d="M 0 0 0 0" transform="matrix(-0.928476707906966,-0.3713906337998342,0.3713906337998342,-0.928476707906966,1719,254)"></path><path  fill="#aaaaaa" stroke="#aaaaaa" d="M 20 0 L 0 10 L 20 20 z" id="v-2759" transform="matrix(0.9284766089996245,-0.3713908810681253,0.3713908810681253,0.9284766089996245,1415.286115138385,244.71522975681782)" style="opacity: 1;"></path><path  d="M 1719 254 L 1578 198 C 1572 195.33333333333331 1566 195.33333333333331 1560 198 L 1419 254" id="v-2758" fill="none" style="cursor: auto; pointer-events: visiblepainted;"></path><g ><g id="v-2751"  label-idx="0" cursor="move" transform="matrix(1,0,0,1,1569,196)" style="cursor: default; opacity: 1;"><rect joint-selector="rect" id="v-2754" fill="#111111" rx="3" ry="3" pointer-events="none" width="186.43482971191406" height="62.939714431762695" transform="matrix(1,0,0,1,-93.2,-31.4)"></rect><text joint-selector="text" id="v-2753" font-size="24px" xml:space="preserve" y="0.8em" fill="#aaaaaa" text-anchor="middle" pointer-events="none" font-family="Open Sans" font-weight="normal" transform="matrix(1,0,0,1,0,-23.8)"><tspan dy="0" >requests file and</tspan><tspan dy="1.2em" x="0" >its informations</tspan></text></g><g id="v-2752"  label-idx="1" cursor="move" transform="matrix(1,0,0,1,1559,236.8000030517578)" style="cursor: default; opacity: 1;"><rect joint-selector="rect" id="v-2756" fill="#ffffff" rx="3" ry="3"  width="0" height="0" transform="matrix(1,0,0,1,0,0)" display="none"></rect><text joint-selector="text" id="v-2755" fill="#000000" font-size="14" text-anchor="middle" pointer-events="none"></text></g></g><g  display="none" style="display: none;"><g  transform="translate(1569, 194)" id="v-2840"><circle  idx="0" r="10"></circle><path  idx="0" d="M16,5.333c-7.732,0-14,4.701-14,10.5c0,1.982,0.741,3.833,2.016,5.414L2,25.667l5.613-1.441c2.339,1.317,5.237,2.107,8.387,2.107c7.732,0,14-4.701,14-10.5C30,10.034,23.732,5.333,16,5.333z" transform="translate(5, -33)"></path><path  idx="0" transform="scale(.8) translate(9.5, -37)" d="M24.778,21.419 19.276,15.917 24.777,10.415 21.949,7.585 16.447,13.087 10.945,7.585 8.117,10.415 13.618,15.917 8.116,21.419 10.946,24.248 16.447,18.746 21.948,24.248z"><title>Remove vertex.</title></path></g></g><g  id="v-2761" display="none"><g  id="v-2749"><path  end="source" d="M 26 0 L 0 13 L 26 26 z"></path></g><g  id="v-2750"><path  end="target" d="M 26 0 L 0 13 L 26 26 z"></path></g></g><g  id="v-2760" display="none"><g  id="v-2747" transform="translate(1681.8246774688942, 239.23533289544736) "><g  event="remove"><circle r="11"></circle><path transform="scale(.8) translate(-16, -16)" d="M24.778,21.419 19.276,15.917 24.777,10.415 21.949,7.585 16.447,13.087 10.945,7.585 8.117,10.415 13.618,15.917 8.116,21.419 10.946,24.248 16.447,18.746 21.948,24.248z"></path><title>Remove link.</title></g><g  event="link:options"><circle r="11" transform="translate(25)"></circle><path fill="white" transform="scale(.55) translate(29, -16)" d="M31.229,17.736c0.064-0.571,0.104-1.148,0.104-1.736s-0.04-1.166-0.104-1.737l-4.377-1.557c-0.218-0.716-0.504-1.401-0.851-2.05l1.993-4.192c-0.725-0.91-1.549-1.734-2.458-2.459l-4.193,1.994c-0.647-0.347-1.334-0.632-2.049-0.849l-1.558-4.378C17.165,0.708,16.588,0.667,16,0.667s-1.166,0.041-1.737,0.105L12.707,5.15c-0.716,0.217-1.401,0.502-2.05,0.849L6.464,4.005C5.554,4.73,4.73,5.554,4.005,6.464l1.994,4.192c-0.347,0.648-0.632,1.334-0.849,2.05l-4.378,1.557C0.708,14.834,0.667,15.412,0.667,16s0.041,1.165,0.105,1.736l4.378,1.558c0.217,0.715,0.502,1.401,0.849,2.049l-1.994,4.193c0.725,0.909,1.549,1.733,2.459,2.458l4.192-1.993c0.648,0.347,1.334,0.633,2.05,0.851l1.557,4.377c0.571,0.064,1.148,0.104,1.737,0.104c0.588,0,1.165-0.04,1.736-0.104l1.558-4.377c0.715-0.218,1.399-0.504,2.049-0.851l4.193,1.993c0.909-0.725,1.733-1.549,2.458-2.458l-1.993-4.193c0.347-0.647,0.633-1.334,0.851-2.049L31.229,17.736zM16,20.871c-2.69,0-4.872-2.182-4.872-4.871c0-2.69,2.182-4.872,4.872-4.872c2.689,0,4.871,2.182,4.871,4.872C20.871,18.689,18.689,20.871,16,20.871z"></path><title>Link options.</title></g></g></g></g><!--z-index:30--><g   id="j_236" ><path  stroke="#aaaaaa" d="M 1419 434 L 1560 490 C 1566 492.66666666666663 1572 492.66666666666663 1578 490 L 1719 434" id="v-2775" stroke-width="2" stroke-dasharray="30 30" fill="none" style="opacity: 1;"></path><path  fill="black" stroke="black" d="M 0 0 0 0" transform="matrix(0.9284766955435519,0.371390664708372,-0.371390664708372,0.9284766955435519,1419,434)"></path><path  fill="#aaaaaa" stroke="#aaaaaa" d="M 20 0 L 0 10 L 20 20 z" id="v-2777" transform="matrix(-0.928476707906966,0.37139063379983406,-0.37139063379983406,-0.928476707906966,1722.7138833780054,443.28475844614945)" style="opacity: 1;"></path><path  d="M 1419 434 L 1560 490 C 1566 492.66666666666663 1572 492.66666666666663 1578 490 L 1719 434" id="v-2776" fill="none" style="cursor: auto; pointer-events: visiblepainted;"></path><g ><g id="v-2769"  label-idx="0" cursor="move" transform="matrix(1,0,0,1,1569,492)" style="cursor: default; opacity: 1;"><rect joint-selector="rect" id="v-2772" fill="#111111" rx="3" ry="3" pointer-events="none" width="168.87844848632812" height="62.939714431762695" transform="matrix(1,0,0,1,-85.3,-31.4)"></rect><text joint-selector="text" id="v-2771" font-size="24px" xml:space="preserve" y="0.8em" fill="#aaaaaa" text-anchor="middle" pointer-events="none" font-family="Open Sans" font-weight="normal" transform="matrix(1,0,0,1,0,-23.8)"><tspan dy="0" >give file and its</tspan><tspan dy="1.2em" x="0" >informations</tspan></text></g><g id="v-2770"  label-idx="1" cursor="move" transform="matrix(1,0,0,1,1559,532.7999877929688)" style="cursor: default; opacity: 1;"><rect joint-selector="rect" id="v-2774" fill="#ffffff" rx="3" ry="3"  width="0" height="0" transform="matrix(1,0,0,1,0,0)" display="none"></rect><text joint-selector="text" id="v-2773" fill="#000000" font-size="14" text-anchor="middle" pointer-events="none"></text></g></g><g  display="none" style="display: none;"><g  transform="translate(1569, 494)" id="v-2841"><circle  idx="0" r="10"></circle><path  idx="0" d="M16,5.333c-7.732,0-14,4.701-14,10.5c0,1.982,0.741,3.833,2.016,5.414L2,25.667l5.613-1.441c2.339,1.317,5.237,2.107,8.387,2.107c7.732,0,14-4.701,14-10.5C30,10.034,23.732,5.333,16,5.333z" transform="translate(5, -33)"></path><path  idx="0" transform="scale(.8) translate(9.5, -37)" d="M24.778,21.419 19.276,15.917 24.777,10.415 21.949,7.585 16.447,13.087 10.945,7.585 8.117,10.415 13.618,15.917 8.116,21.419 10.946,24.248 16.447,18.746 21.948,24.248z"><title>Remove vertex.</title></path></g></g><g  id="v-2779" display="none"><g  id="v-2767"><path  end="source" d="M 26 0 L 0 13 L 26 26 z"></path></g><g  id="v-2768"><path  end="target" d="M 26 0 L 0 13 L 26 26 z"></path></g></g><g  id="v-2778" display="none"><g  id="v-2765" transform="translate(1456.1753225311058, 448.7646671045527) "><g  event="remove"><circle r="11"></circle><path transform="scale(.8) translate(-16, -16)" d="M24.778,21.419 19.276,15.917 24.777,10.415 21.949,7.585 16.447,13.087 10.945,7.585 8.117,10.415 13.618,15.917 8.116,21.419 10.946,24.248 16.447,18.746 21.948,24.248z"></path><title>Remove link.</title></g><g  event="link:options"><circle r="11" transform="translate(25)"></circle><path fill="white" transform="scale(.55) translate(29, -16)" d="M31.229,17.736c0.064-0.571,0.104-1.148,0.104-1.736s-0.04-1.166-0.104-1.737l-4.377-1.557c-0.218-0.716-0.504-1.401-0.851-2.05l1.993-4.192c-0.725-0.91-1.549-1.734-2.458-2.459l-4.193,1.994c-0.647-0.347-1.334-0.632-2.049-0.849l-1.558-4.378C17.165,0.708,16.588,0.667,16,0.667s-1.166,0.041-1.737,0.105L12.707,5.15c-0.716,0.217-1.401,0.502-2.05,0.849L6.464,4.005C5.554,4.73,4.73,5.554,4.005,6.464l1.994,4.192c-0.347,0.648-0.632,1.334-0.849,2.05l-4.378,1.557C0.708,14.834,0.667,15.412,0.667,16s0.041,1.165,0.105,1.736l4.378,1.558c0.217,0.715,0.502,1.401,0.849,2.049l-1.994,4.193c0.725,0.909,1.549,1.733,2.459,2.458l4.192-1.993c0.648,0.347,1.334,0.633,2.05,0.851l1.557,4.377c0.571,0.064,1.148,0.104,1.737,0.104c0.588,0,1.165-0.04,1.736-0.104l1.558-4.377c0.715-0.218,1.399-0.504,2.049-0.851l4.193,1.993c0.909-0.725,1.733-1.549,2.458-2.458l-1.993-4.193c0.347-0.647,0.633-1.334,0.851-2.049L31.229,17.736zM16,20.871c-2.69,0-4.872-2.182-4.872-4.871c0-2.69,2.182-4.872,4.872-4.872c2.689,0,4.871,2.182,4.871,4.872C20.871,18.689,18.689,20.871,16,20.871z"></path><title>Link options.</title></g></g></g></g><!--z-index:31--><g   id="j_237" ><path  stroke="#aaaaaa" d="M 969 349 L 773 354 C 766.3333333333333 354 760.6666666666666 356.3333333333333 756 361 L 609 494" id="v-2793" stroke-width="2" stroke-dasharray="30 30" fill="none" style="opacity: 1;"></path><path  fill="black" stroke="black" d="M 0 0 0 0" transform="matrix(-0.9997309014610551,0.023197514174281144,-0.023197514174281144,-0.9997309014610551,969,349.2200012207031)"></path><path  fill="#aaaaaa" stroke="#aaaaaa" d="M 20 0 L 0 10 L 20 20 z" id="v-2795" transform="matrix(0.7399401598691557,-0.672672698875767,0.672672698875767,0.7399401598691557,602.2732854750508,486.6006103021755)" style="opacity: 1;"></path><path  d="M 969 349 L 773 354 C 766.3333333333333 354 760.6666666666666 356.3333333333333 756 361 L 609 494" id="v-2794" fill="none" style="cursor: auto; pointer-events: visiblepainted;"></path><g ><g id="v-2787"  label-idx="0" cursor="move" transform="matrix(1,0,0,1,762.7642211914062,356.1842041015625)" style="cursor: default; opacity: 1;"><rect joint-selector="rect" id="v-2790" fill="#111111" rx="3" ry="3" pointer-events="none" width="187.63497924804688" height="62.939714431762695" transform="matrix(1,0,0,1,-93.4,-31.4)"></rect><text joint-selector="text" id="v-2789" font-size="24px" xml:space="preserve" y="0.8em" fill="#aaaaaa" text-anchor="middle" pointer-events="none" font-family="Open Sans" font-weight="normal" transform="matrix(1,0,0,1,0,-23.8)"><tspan dy="0" >sends file and its</tspan><tspan dy="1.2em" x="0" >informations</tspan></text></g><g id="v-2788"  label-idx="1" cursor="move" transform="matrix(1,0,0,1,752.7642211914062,396.98419189453125)" style="cursor: default; opacity: 1;"><rect joint-selector="rect" id="v-2792" fill="#ffffff" rx="3" ry="3"  width="0" height="0" transform="matrix(1,0,0,1,0,0)" display="none"></rect><text joint-selector="text" id="v-2791" fill="#000000" font-size="14" text-anchor="middle" pointer-events="none"></text></g></g><g  display="none" style="display: none;"><g  transform="translate(763, 354)" id="v-2842"><circle  idx="0" r="10"></circle><path  idx="0" d="M16,5.333c-7.732,0-14,4.701-14,10.5c0,1.982,0.741,3.833,2.016,5.414L2,25.667l5.613-1.441c2.339,1.317,5.237,2.107,8.387,2.107c7.732,0,14-4.701,14-10.5C30,10.034,23.732,5.333,16,5.333z" transform="translate(5, -33)"></path><path  idx="0" transform="scale(.8) translate(9.5, -37)" d="M24.778,21.419 19.276,15.917 24.777,10.415 21.949,7.585 16.447,13.087 10.945,7.585 8.117,10.415 13.618,15.917 8.116,21.419 10.946,24.248 16.447,18.746 21.948,24.248z"><title>Remove vertex.</title></path></g></g><g  id="v-2797" display="none"><g  id="v-2785"><path  end="source" d="M 26 0 L 0 13 L 26 26 z"></path></g><g  id="v-2786"><path  end="target" d="M 26 0 L 0 13 L 26 26 z"></path></g></g><g  id="v-2796" display="none"><g  id="v-2783" transform="translate(929.0130090611549, 350.02007629946036) "><g  event="remove"><circle r="11"></circle><path transform="scale(.8) translate(-16, -16)" d="M24.778,21.419 19.276,15.917 24.777,10.415 21.949,7.585 16.447,13.087 10.945,7.585 8.117,10.415 13.618,15.917 8.116,21.419 10.946,24.248 16.447,18.746 21.948,24.248z"></path><title>Remove link.</title></g><g  event="link:options"><circle r="11" transform="translate(25)"></circle><path fill="white" transform="scale(.55) translate(29, -16)" d="M31.229,17.736c0.064-0.571,0.104-1.148,0.104-1.736s-0.04-1.166-0.104-1.737l-4.377-1.557c-0.218-0.716-0.504-1.401-0.851-2.05l1.993-4.192c-0.725-0.91-1.549-1.734-2.458-2.459l-4.193,1.994c-0.647-0.347-1.334-0.632-2.049-0.849l-1.558-4.378C17.165,0.708,16.588,0.667,16,0.667s-1.166,0.041-1.737,0.105L12.707,5.15c-0.716,0.217-1.401,0.502-2.05,0.849L6.464,4.005C5.554,4.73,4.73,5.554,4.005,6.464l1.994,4.192c-0.347,0.648-0.632,1.334-0.849,2.05l-4.378,1.557C0.708,14.834,0.667,15.412,0.667,16s0.041,1.165,0.105,1.736l4.378,1.558c0.217,0.715,0.502,1.401,0.849,2.049l-1.994,4.193c0.725,0.909,1.549,1.733,2.459,2.458l4.192-1.993c0.648,0.347,1.334,0.633,2.05,0.851l1.557,4.377c0.571,0.064,1.148,0.104,1.737,0.104c0.588,0,1.165-0.04,1.736-0.104l1.558-4.377c0.715-0.218,1.399-0.504,2.049-0.851l4.193,1.993c0.909-0.725,1.733-1.549,2.458-2.458l-1.993-4.193c0.347-0.647,0.633-1.334,0.851-2.049L31.229,17.736zM16,20.871c-2.69,0-4.872-2.182-4.872-4.871c0-2.69,2.182-4.872,4.872-4.872c2.689,0,4.871,2.182,4.871,4.872C20.871,18.689,18.689,20.871,16,20.871z"></path><title>Link options.</title></g></g></g></g><!--z-index:32--><g   id="j_238" ><path  stroke="#aaaaaa" d="M 610 794 L 756 926 C 760.6666666666666 930.6666666666666 766.3333333333333 933 773 933 L 969 938" id="v-2811" stroke-width="2" stroke-dasharray="30 30" fill="none" style="opacity: 1;"></path><path  fill="black" stroke="black" d="M 0 0 0 0" transform="matrix(0.7410973598907792,0.6713975745881995,-0.6713975745881995,0.7410973598907792,609.5700073242188,794)"></path><path  fill="#aaaaaa" stroke="#aaaaaa" d="M 20 0 L 0 10 L 20 20 z" id="v-2813" transform="matrix(-0.9996741647851132,-0.025525756819073753,0.025525756819073753,-0.9996741647851132,968.7447189429416,948.2567599582294)" style="opacity: 1;"></path><path  d="M 610 794 L 756 926 C 760.6666666666666 930.6666666666666 766.3333333333333 933 773 933 L 969 938" id="v-2812" fill="none" style="cursor: auto; pointer-events: visiblepainted;"></path><g ><g id="v-2805"  label-idx="0" cursor="move" transform="matrix(1,0,0,1,763.4191284179688,931.110595703125)" style="cursor: default; opacity: 1;"><rect joint-selector="rect" id="v-2808" fill="#111111" rx="3" ry="3" pointer-events="none" width="170.82337951660156" height="62.939714431762695" transform="matrix(1,0,0,1,-86.3,-31.4)"></rect><text joint-selector="text" id="v-2807" font-size="24px" xml:space="preserve" y="0.8em" fill="#aaaaaa" text-anchor="middle" pointer-events="none" font-family="Open Sans" font-weight="normal" transform="matrix(1,0,0,1,0,-23.8)"><tspan dy="0" >gets file and its</tspan><tspan dy="1.2em" x="0" >informations</tspan></text></g><g id="v-2806"  label-idx="1" cursor="move" transform="matrix(1,0,0,1,753.4191284179688,971.9105834960938)" style="cursor: default; opacity: 1;"><rect joint-selector="rect" id="v-2810" fill="#ffffff" rx="3" ry="3"  width="0" height="0" transform="matrix(1,0,0,1,0,0)" display="none"></rect><text joint-selector="text" id="v-2809" fill="#000000" font-size="14" text-anchor="middle" pointer-events="none"></text></g></g><g  display="none" style="display: none;"><g  transform="translate(763, 933)" id="v-2843"><circle  idx="0" r="10"></circle><path  idx="0" d="M16,5.333c-7.732,0-14,4.701-14,10.5c0,1.982,0.741,3.833,2.016,5.414L2,25.667l5.613-1.441c2.339,1.317,5.237,2.107,8.387,2.107c7.732,0,14-4.701,14-10.5C30,10.034,23.732,5.333,16,5.333z" transform="translate(5, -33)"></path><path  idx="0" transform="scale(.8) translate(9.5, -37)" d="M24.778,21.419 19.276,15.917 24.777,10.415 21.949,7.585 16.447,13.087 10.945,7.585 8.117,10.415 13.618,15.917 8.116,21.419 10.946,24.248 16.447,18.746 21.948,24.248z"><title>Remove vertex.</title></path></g></g><g  id="v-2815" display="none"><g  id="v-2803"><path  end="source" d="M 26 0 L 0 13 L 26 26 z"></path></g><g  id="v-2804"><path  end="target" d="M 26 0 L 0 13 L 26 26 z"></path></g></g><g  id="v-2814" display="none"><g  id="v-2801" transform="translate(639.6710584379473, 820.8258884507469) "><g  event="remove"><circle r="11"></circle><path transform="scale(.8) translate(-16, -16)" d="M24.778,21.419 19.276,15.917 24.777,10.415 21.949,7.585 16.447,13.087 10.945,7.585 8.117,10.415 13.618,15.917 8.116,21.419 10.946,24.248 16.447,18.746 21.948,24.248z"></path><title>Remove link.</title></g><g  event="link:options"><circle r="11" transform="translate(25)"></circle><path fill="white" transform="scale(.55) translate(29, -16)" d="M31.229,17.736c0.064-0.571,0.104-1.148,0.104-1.736s-0.04-1.166-0.104-1.737l-4.377-1.557c-0.218-0.716-0.504-1.401-0.851-2.05l1.993-4.192c-0.725-0.91-1.549-1.734-2.458-2.459l-4.193,1.994c-0.647-0.347-1.334-0.632-2.049-0.849l-1.558-4.378C17.165,0.708,16.588,0.667,16,0.667s-1.166,0.041-1.737,0.105L12.707,5.15c-0.716,0.217-1.401,0.502-2.05,0.849L6.464,4.005C5.554,4.73,4.73,5.554,4.005,6.464l1.994,4.192c-0.347,0.648-0.632,1.334-0.849,2.05l-4.378,1.557C0.708,14.834,0.667,15.412,0.667,16s0.041,1.165,0.105,1.736l4.378,1.558c0.217,0.715,0.502,1.401,0.849,2.049l-1.994,4.193c0.725,0.909,1.549,1.733,2.459,2.458l4.192-1.993c0.648,0.347,1.334,0.633,2.05,0.851l1.557,4.377c0.571,0.064,1.148,0.104,1.737,0.104c0.588,0,1.165-0.04,1.736-0.104l1.558-4.377c0.715-0.218,1.399-0.504,2.049-0.851l4.193,1.993c0.909-0.725,1.733-1.549,2.458-2.458l-1.993-4.193c0.347-0.647,0.633-1.334,0.851-2.049L31.229,17.736zM16,20.871c-2.69,0-4.872-2.182-4.872-4.871c0-2.69,2.182-4.872,4.872-4.872c2.689,0,4.871,2.182,4.871,4.872C20.871,18.689,18.689,20.871,16,20.871z"></path><title>Link options.</title></g></g></g></g><!--z-index:33--><g   id="j_239" ><path  stroke="#aaaaaa" d="M 1301 1094 L 1473 1335 C 1477 1340.3333333333333 1482 1344 1488 1346 L 1744 1434" id="v-2829" stroke-width="2" stroke-dasharray="30 30" fill="none" style="opacity: 1;"></path><path  fill="black" stroke="black" d="M 0 0 0 0" transform="matrix(0.5812443695621886,0.8137290598548474,-0.8137290598548474,0.5812443695621886,1301.1400146484375,1094)"></path><path  fill="#aaaaaa" stroke="#aaaaaa" d="M 20 0 L 0 10 L 20 20 z" id="v-2831" transform="matrix(-0.9462163515403105,-0.3235345670523377,0.3235345670523377,-0.9462163515403105,1740.7646596417546,1443.072142974989)" style="opacity: 1;"></path><path  d="M 1301 1094 L 1473 1335 C 1477 1340.3333333333333 1482 1344 1488 1346 L 1744 1434" id="v-2830" fill="none" style="cursor: auto; pointer-events: visiblepainted;"></path><g ><g id="v-2823"  label-idx="0" cursor="move" transform="matrix(1,0,0,1,1471.1162109375,1332.3604736328125)" style="cursor: default; opacity: 1;"><rect joint-selector="rect" id="v-2826" fill="#111111" rx="3" ry="3" pointer-events="none" width="192.50901794433594" height="62.939714431762695" transform="matrix(1,0,0,1,-95.9,-31.4)"></rect><text joint-selector="text" id="v-2825" font-size="24px" xml:space="preserve" y="0.8em" fill="#aaaaaa" text-anchor="middle" pointer-events="none" font-family="Open Sans" font-weight="normal" transform="matrix(1,0,0,1,0,-23.8)"><tspan dy="0" >shows file and its</tspan><tspan dy="1.2em" x="0" >informations</tspan></text></g><g id="v-2824"  label-idx="1" cursor="move" transform="matrix(1,0,0,1,1461.1162109375,1373.1605224609375)" style="cursor: default; opacity: 1;"><rect joint-selector="rect" id="v-2828" fill="#ffffff" rx="3" ry="3"  width="0" height="0" transform="matrix(1,0,0,1,0,0)" display="none"></rect><text joint-selector="text" id="v-2827" fill="#000000" font-size="14" text-anchor="middle" pointer-events="none"></text></g></g><g  display="none" style="display: none;"><g  transform="translate(1479, 1343)" id="v-2844"><circle  idx="0" r="10"></circle><path  idx="0" d="M16,5.333c-7.732,0-14,4.701-14,10.5c0,1.982,0.741,3.833,2.016,5.414L2,25.667l5.613-1.441c2.339,1.317,5.237,2.107,8.387,2.107c7.732,0,14-4.701,14-10.5C30,10.034,23.732,5.333,16,5.333z" transform="translate(5, -33)"></path><path  idx="0" transform="scale(.8) translate(9.5, -37)" d="M24.778,21.419 19.276,15.917 24.777,10.415 21.949,7.585 16.447,13.087 10.945,7.585 8.117,10.415 13.618,15.917 8.116,21.419 10.946,24.248 16.447,18.746 21.948,24.248z"><title>Remove vertex.</title></path></g></g><g  id="v-2833" display="none"><g  id="v-2821"><path  end="source" d="M 26 0 L 0 13 L 26 26 z"></path></g><g  id="v-2822"><path  end="target" d="M 26 0 L 0 13 L 26 26 z"></path></g></g><g  id="v-2832" display="none"><g  id="v-2819" transform="translate(1324.2367464765066, 1126.5584645397562) "><g  event="remove"><circle r="11"></circle><path transform="scale(.8) translate(-16, -16)" d="M24.778,21.419 19.276,15.917 24.777,10.415 21.949,7.585 16.447,13.087 10.945,7.585 8.117,10.415 13.618,15.917 8.116,21.419 10.946,24.248 16.447,18.746 21.948,24.248z"></path><title>Remove link.</title></g><g  event="link:options"><circle r="11" transform="translate(25)"></circle><path fill="white" transform="scale(.55) translate(29, -16)" d="M31.229,17.736c0.064-0.571,0.104-1.148,0.104-1.736s-0.04-1.166-0.104-1.737l-4.377-1.557c-0.218-0.716-0.504-1.401-0.851-2.05l1.993-4.192c-0.725-0.91-1.549-1.734-2.458-2.459l-4.193,1.994c-0.647-0.347-1.334-0.632-2.049-0.849l-1.558-4.378C17.165,0.708,16.588,0.667,16,0.667s-1.166,0.041-1.737,0.105L12.707,5.15c-0.716,0.217-1.401,0.502-2.05,0.849L6.464,4.005C5.554,4.73,4.73,5.554,4.005,6.464l1.994,4.192c-0.347,0.648-0.632,1.334-0.849,2.05l-4.378,1.557C0.708,14.834,0.667,15.412,0.667,16s0.041,1.165,0.105,1.736l4.378,1.558c0.217,0.715,0.502,1.401,0.849,2.049l-1.994,4.193c0.725,0.909,1.549,1.733,2.459,2.458l4.192-1.993c0.648,0.347,1.334,0.633,2.05,0.851l1.557,4.377c0.571,0.064,1.148,0.104,1.737,0.104c0.588,0,1.165-0.04,1.736-0.104l1.558-4.377c0.715-0.218,1.399-0.504,2.049-0.851l4.193,1.993c0.909-0.725,1.733-1.549,2.458-2.458l-1.993-4.193c0.347-0.647,0.633-1.334,0.851-2.049L31.229,17.736zM16,20.871c-2.69,0-4.872-2.182-4.872-4.871c0-2.69,2.182-4.872,4.872-4.872c2.689,0,4.871,2.182,4.871,4.872C20.871,18.689,18.689,20.871,16,20.871z"></path><title>Link options.</title></g></g></g></g><!--z-index:34--><!--z-index:35--><!--z-index:36--><!--z-index:37--><!--z-index:38--><!--z-index:39--><!--z-index:40--><!--z-index:41--><!--z-index:42--><!--z-index:43--></g><g ></g><g ></g><g ></g></g></svg>