<svg xmlns="http://www.w3.org/2000/svg" xmlns:xlink="http://www.w3.org/1999/xlink" version="1.1" viewBox="0 0 2300 1411" style="background: #111111"><defs><style>@import url(https://fonts.googleapis.com/css?family=Open+Sans:400,700);</style></defs><defs joint-selector="defs"></defs><g joint-selector="layers"  transform="matrix(1,0,0,1,0,0)"><g ></g><g ><!--z-index:0--><!--z-index:1--><!--z-index:2--><!--z-index:3--><!--z-index:4--><!--z-index:5--><!--z-index:6--><!--z-index:7--><!--z-index:8--><!--z-index:9--><!--z-index:10--><!--z-index:11--><!--z-index:12--><!--z-index:13--><!--z-index:14--><!--z-index:15--><g   id="j_269"  transform="translate(20,1374.6)"><g id="v-3141"><text  id="v-3142" font-size="22px" xml:space="preserve" y="0.8em" font-weight="normal" text-anchor="start" fill="#777777" pointer-events="none" display="block" font-family="Open Sans"><tspan dy="0" >neděle 16. března 2025 v 21:43 středoevropský standardní čas</tspan></text></g></g><!--z-index:16--><g   id="j_268"  transform="translate(20,1331.3999999999999)"><g id="v-3139"><text  id="v-3140" font-size="36px" xml:space="preserve" y="0.8em" font-weight="normal" text-anchor="start" fill="#bbbbbb" pointer-events="none" display="block" font-family="Open Sans"><tspan dy="0" >[Component] pokusHttp - app UI</tspan></text></g></g><!--z-index:17--><g   id="j_270"  transform="translate(200,435)" style=""><g  id="v-3143" style="opacity: 1;"><rect  x="0" y="160" width="400" height="240" rx="70" id="v-3145" stroke="#2d3db6" stroke-width="2" pointer-events="visiblePainted" fill="#3244ca" style="fill: rgb(50, 68, 202); stroke: rgb(45, 61, 182);"></rect><circle  cx="200" cy="88.88888888888889" r="88.88888888888889" id="v-3144" stroke="#2d3db6" stroke-width="2" pointer-events="visiblePainted" fill="#3244ca" style="fill: rgb(50, 68, 202); stroke: rgb(45, 61, 182);"></circle><line  x1="80" y1="266.6666666666667" x2="80" y2="400" id="v-3151" stroke="#2d3db6" stroke-width="2" style="stroke: rgb(45, 61, 182);"></line><line  x1="320" y1="266.6666666666667" x2="320" y2="400" id="v-3152" stroke="#2d3db6" stroke-width="2" style="stroke: rgb(45, 61, 182);"></line><text  id="v-3146" font-size="34" xml:space="preserve" y="0.8em" font-weight="bold" text-anchor="middle" pointer-events="visible" font-family="Open Sans" fill="#ffffff" transform="matrix(1,0,0,1,200,251.9)" style="fill: rgb(255, 255, 255);"><tspan dy="0" >User</tspan></text><text  id="v-3147" font-size="17" xml:space="preserve" y="0.8em" text-anchor="middle" font-family="Open Sans" fill="#ffffff" transform="matrix(1,0,0,1,200,292.7)" style="fill: rgb(255, 255, 255);"><tspan dy="0" >[Person]</tspan></text><text  id="v-3148" font-size="24" xml:space="preserve" display="none" y="0.8em" text-anchor="middle" font-family="Open Sans" fill="#ffffff" transform="matrix(1,0,0,1,200,313.1)" style="fill: rgb(255, 255, 255);"><tspan dy="0" style="fill-opacity: 0; stroke-opacity: 0;" >-</tspan></text><g  id="v-3149" font-weight="normal" text-anchor="middle" color="#ffffff" transform="matrix(1,0,0,1,197.5,368)" display="none" style="fill: rgb(255, 255, 255);"><g ></g><g ></g><g ></g><g ></g></g><image  id="v-3150"></image></g></g><!--z-index:18--><g   id="j_272"  transform="translate(880,165)" style=""><g id="v-3163"><rect  id="v-3164" width="490" height="1011" rx="0" ry="0" fill="#111111" stroke="#5a67c2" stroke-width="1" stroke-dasharray="20,20" pointer-events="none"></rect><text  id="v-3165" font-size="24px" xml:space="preserve" y="972" font-weight="normal" fill="#5a67c2" text-anchor="start" pointer-events="visible" font-family="Open Sans" transform="matrix(1,0,0,1,15,0)"><tspan dy="0" >app UI</tspan></text><text  id="v-3166" font-size="17px" xml:space="preserve" y="996" font-weight="normal" fill="#5a67c2" text-anchor="start" pointer-events="visible" font-family="Open Sans" transform="matrix(1,0,0,1,15,0)"><tspan dy="0" >[Container]</tspan></text><image  id="v-3167" pointer-events="visible"></image></g></g><!--z-index:19--><g   id="j_271"  transform="translate(900,185)" style=""><g  id="v-3156" style="opacity: 1;"><rect  id="v-3157" rx="1" ry="1" stroke="#5a67c2" stroke-width="2" pointer-events="visiblePainted" fill="#6472d8" width="450" height="300" style="fill: rgb(100, 114, 216); stroke: rgb(90, 103, 194);"></rect><text  id="v-3158" font-size="34" xml:space="preserve" y="0.8em" font-weight="bold" text-anchor="middle" pointer-events="visible" font-family="Open Sans" fill="#ffffff" transform="matrix(1,0,0,1,225,88.1)" style="fill: rgb(255, 255, 255);"><tspan dy="0" >main page</tspan></text><text  id="v-3159" font-size="17" xml:space="preserve" y="0.8em" text-anchor="middle" font-family="Open Sans" fill="#ffffff" transform="matrix(1,0,0,1,225,128.9)" style="fill: rgb(255, 255, 255);"><tspan dy="0" >[Component]</tspan></text><text  id="v-3160" font-size="24" xml:space="preserve" y="0.8em" text-anchor="middle" font-family="Open Sans" fill="#ffffff" transform="matrix(1,0,0,1,225,159.3)" style="fill: rgb(255, 255, 255);"><tspan dy="0" >The page that allows user to upload</tspan><tspan dy="1.2em" x="0" >files.</tspan></text><g  id="v-3161" color="#ffffff" transform="matrix(1,0,0,1,222.5,268)" display="none" style="fill: rgb(255, 255, 255);"><g ></g><g ></g><g ></g><g ></g></g><image  id="v-3162"></image></g></g><!--z-index:20--><g   id="j_273"  transform="translate(900,785)" style=""><g  id="v-3171" style="opacity: 1;"><rect  id="v-3172" rx="1" ry="1" stroke="#5a67c2" stroke-width="2" pointer-events="visiblePainted" fill="#6472d8" width="450" height="300" style="fill: rgb(100, 114, 216); stroke: rgb(90, 103, 194);"></rect><text  id="v-3173" font-size="34" xml:space="preserve" y="0.8em" font-weight="bold" text-anchor="middle" pointer-events="visible" font-family="Open Sans" fill="#ffffff" transform="matrix(1,0,0,1,225,88.1)" style="fill: rgb(255, 255, 255);"><tspan dy="0" >get files</tspan></text><text  id="v-3174" font-size="17" xml:space="preserve" y="0.8em" text-anchor="middle" font-family="Open Sans" fill="#ffffff" transform="matrix(1,0,0,1,225,128.9)" style="fill: rgb(255, 255, 255);"><tspan dy="0" >[Component]</tspan></text><text  id="v-3175" font-size="24" xml:space="preserve" y="0.8em" text-anchor="middle" font-family="Open Sans" fill="#ffffff" transform="matrix(1,0,0,1,225,159.3)" style="fill: rgb(255, 255, 255);"><tspan dy="0" >The page that allows user to get</tspan><tspan dy="1.2em" x="0" >files.</tspan></text><g  id="v-3176" color="#ffffff" transform="matrix(1,0,0,1,222.5,268)" display="none" style="fill: rgb(255, 255, 255);"><g ></g><g ></g><g ></g><g ></g></g><image  id="v-3177"></image></g></g><!--z-index:21--><g   id="j_274"  transform="translate(1650,485)" style=""><g  id="v-3181" style="opacity: 1;"><rect  id="v-3182" rx="1" ry="1" stroke="#5a67c2" stroke-width="2" pointer-events="visiblePainted" fill="#6472d8" width="450" height="300" style="fill: rgb(100, 114, 216); stroke: rgb(90, 103, 194);"></rect><text  id="v-3183" font-size="34" xml:space="preserve" y="0.8em" font-weight="bold" text-anchor="middle" pointer-events="visible" font-family="Open Sans" fill="#ffffff" transform="matrix(1,0,0,1,225,121.9)" style="fill: rgb(255, 255, 255);"><tspan dy="0" >File Controller api</tspan></text><text  id="v-3184" font-size="17" xml:space="preserve" y="0.8em" text-anchor="middle" font-family="Open Sans" fill="#ffffff" transform="matrix(1,0,0,1,225,162.7)" style="fill: rgb(255, 255, 255);"><tspan dy="0" >[Container]</tspan></text><text  id="v-3185" font-size="24" xml:space="preserve" display="none" y="0.8em" text-anchor="middle" font-family="Open Sans" fill="#ffffff" transform="matrix(1,0,0,1,225,183.1)" style="fill: rgb(255, 255, 255);"><tspan dy="0" style="fill-opacity: 0; stroke-opacity: 0;" >-</tspan></text><g  id="v-3186" color="#ffffff" transform="matrix(1,0,0,1,210,268)" display="none" style="fill: rgb(255, 255, 255);"><g  transform="translate(5 0)"><svg xmlns="http://www.w3.org/2000/svg" width="20" height="20" fill="currentColor" viewBox="0 0 16 16"><path fill-rule="evenodd" d="M6.5 12a5.5 5.5 0 1 0 0-11 5.5 5.5 0 0 0 0 11zM13 6.5a6.5 6.5 0 1 1-13 0 6.5 6.5 0 0 1 13 0z"></path><path d="M10.344 11.742c.03.04.062.078.098.115l3.85 3.85a1 1 0 0 0 1.415-1.414l-3.85-3.85a1.007 1.007 0 0 0-.115-.1 6.538 6.538 0 0 1-1.398 1.4z"></path><path fill-rule="evenodd" d="M6.5 3a.5.5 0 0 1 .5.5V6h2.5a.5.5 0 0 1 0 1H7v2.5a.5.5 0 0 1-1 0V7H3.5a.5.5 0 0 1 0-1H6V3.5a.5.5 0 0 1 .5-.5z"></path></svg></g><g ></g><g ></g><g ></g></g><image  id="v-3187"></image></g></g><!--z-index:22--><g   id="j_275" ><path  stroke="#aaaaaa" d="M 600 552 L 900 428" id="v-3200" stroke-width="2" stroke-dasharray="30 30" fill="none" style="opacity: 1;"></path><path  fill="black" stroke="black" d="M 0 0 0 0" transform="matrix(0.924014613877864,-0.38235715416367155,0.38235715416367155,0.924014613877864,600,552.239990234375)"></path><path  fill="#aaaaaa" stroke="#aaaaaa" d="M 20 0 L 0 10 L 20 20 z" id="v-3202" transform="matrix(-0.9240146138778639,0.38235715416367183,-0.38235715416367183,-0.9240146138778639,903.8235443405717,437.3401585815169)" style="opacity: 1;"></path><path  d="M 600 552 L 900 428" id="v-3201" fill="none" style="cursor: auto; pointer-events: visiblepainted;"></path><g ><g id="v-3194"  label-idx="0" cursor="move" transform="matrix(1,0,0,1,750,490)" style="cursor: default; opacity: 1;"><rect joint-selector="rect" id="v-3197" fill="#111111" rx="3" ry="3" pointer-events="none" width="178.15386962890625" height="60.75784492492676" transform="matrix(1,0,0,1,-89.1,-30.4)"></rect><text joint-selector="text" id="v-3196" font-size="24px" xml:space="preserve" y="0.8em" fill="#aaaaaa" text-anchor="middle" pointer-events="none" font-family="Open Sans" font-weight="normal" transform="matrix(1,0,0,1,0,-24.7)"><tspan dy="0" >uploads file and</tspan><tspan dy="1.2em" x="0" >its informations</tspan></text></g><g id="v-3195"  label-idx="1" cursor="move" transform="matrix(1,0,0,1,740,530.7999877929688)" style="cursor: default; opacity: 1;"><rect joint-selector="rect" id="v-3199" fill="#ffffff" rx="3" ry="3"  width="0" height="0" transform="matrix(1,0,0,1,0,0)" display="none"></rect><text joint-selector="text" id="v-3198" fill="#000000" font-size="14" text-anchor="middle" pointer-events="none"></text></g></g><g  display="none" style="display: none;"></g><g  id="v-3204" display="none"><g  id="v-3192"><path  end="source" d="M 26 0 L 0 13 L 26 26 z"></path></g><g  id="v-3193"><path  end="target" d="M 26 0 L 0 13 L 26 26 z"></path></g></g><g  id="v-3203" display="none"><g  id="v-3191" transform="translate(636.966675187258, 536.7204409226) "><g  event="remove"><circle r="11"></circle><path transform="scale(.8) translate(-16, -16)" d="M24.778,21.419 19.276,15.917 24.777,10.415 21.949,7.585 16.447,13.087 10.945,7.585 8.117,10.415 13.618,15.917 8.116,21.419 10.946,24.248 16.447,18.746 21.948,24.248z"></path><title>Remove link.</title></g><g  event="link:options"><circle r="11" transform="translate(25)"></circle><path fill="white" transform="scale(.55) translate(29, -16)" d="M31.229,17.736c0.064-0.571,0.104-1.148,0.104-1.736s-0.04-1.166-0.104-1.737l-4.377-1.557c-0.218-0.716-0.504-1.401-0.851-2.05l1.993-4.192c-0.725-0.91-1.549-1.734-2.458-2.459l-4.193,1.994c-0.647-0.347-1.334-0.632-2.049-0.849l-1.558-4.378C17.165,0.708,16.588,0.667,16,0.667s-1.166,0.041-1.737,0.105L12.707,5.15c-0.716,0.217-1.401,0.502-2.05,0.849L6.464,4.005C5.554,4.73,4.73,5.554,4.005,6.464l1.994,4.192c-0.347,0.648-0.632,1.334-0.849,2.05l-4.378,1.557C0.708,14.834,0.667,15.412,0.667,16s0.041,1.165,0.105,1.736l4.378,1.558c0.217,0.715,0.502,1.401,0.849,2.049l-1.994,4.193c0.725,0.909,1.549,1.733,2.459,2.458l4.192-1.993c0.648,0.347,1.334,0.633,2.05,0.851l1.557,4.377c0.571,0.064,1.148,0.104,1.737,0.104c0.588,0,1.165-0.04,1.736-0.104l1.558-4.377c0.715-0.218,1.399-0.504,2.049-0.851l4.193,1.993c0.909-0.725,1.733-1.549,2.458-2.458l-1.993-4.193c0.347-0.647,0.633-1.334,0.851-2.049L31.229,17.736zM16,20.871c-2.69,0-4.872-2.182-4.872-4.871c0-2.69,2.182-4.872,4.872-4.872c2.689,0,4.871,2.182,4.871,4.872C20.871,18.689,18.689,20.871,16,20.871z"></path><title>Link options.</title></g></g></g></g><!--z-index:23--><g   id="j_276" ><path  stroke="#aaaaaa" d="M 1350 425 L 1650 545" id="v-3217" stroke-width="2" stroke-dasharray="30 30" fill="none" style="opacity: 1;"></path><path  fill="black" stroke="black" d="M 0 0 0 0" transform="matrix(0.9284766955435518,0.37139066470837195,-0.37139066470837195,0.9284766955435518,1350,425)"></path><path  fill="#aaaaaa" stroke="#aaaaaa" d="M 20 0 L 0 10 L 20 20 z" id="v-3219" transform="matrix(-0.9284767079069659,-0.37139063379983417,0.37139063379983417,-0.9284767079069659,1646.2860707020088,554.2847451944118)" style="opacity: 1;"></path><path  d="M 1350 425 L 1650 545" id="v-3218" fill="none" style="cursor: auto; pointer-events: visiblepainted;"></path><g ><g id="v-3211"  label-idx="0" cursor="move" transform="matrix(1,0,0,1,1500,485)" style="cursor: default; opacity: 1;"><rect joint-selector="rect" id="v-3214" fill="#111111" rx="3" ry="3" pointer-events="none" width="187.80308532714844" height="60.75784492492676" transform="matrix(1,0,0,1,-93.4,-30.4)"></rect><text joint-selector="text" id="v-3213" font-size="24px" xml:space="preserve" y="0.8em" fill="#aaaaaa" text-anchor="middle" pointer-events="none" font-family="Open Sans" font-weight="normal" transform="matrix(1,0,0,1,0,-24.7)"><tspan dy="0" >sends file and its</tspan><tspan dy="1.2em" x="0" >informations</tspan></text></g><g id="v-3212"  label-idx="1" cursor="move" transform="matrix(1,0,0,1,1490,525.7999877929688)" style="cursor: default; opacity: 1;"><rect joint-selector="rect" id="v-3216" fill="#ffffff" rx="3" ry="3"  width="0" height="0" transform="matrix(1,0,0,1,0,0)" display="none"></rect><text joint-selector="text" id="v-3215" fill="#000000" font-size="14" text-anchor="middle" pointer-events="none"></text></g></g><g  display="none" style="display: none;"></g><g  id="v-3221" display="none"><g  id="v-3209"><path  end="source" d="M 26 0 L 0 13 L 26 26 z"></path></g><g  id="v-3210"><path  end="target" d="M 26 0 L 0 13 L 26 26 z"></path></g></g><g  id="v-3220" display="none"><g  id="v-3208" transform="translate(1387.1390676354104, 439.8556270541642) "><g  event="remove"><circle r="11"></circle><path transform="scale(.8) translate(-16, -16)" d="M24.778,21.419 19.276,15.917 24.777,10.415 21.949,7.585 16.447,13.087 10.945,7.585 8.117,10.415 13.618,15.917 8.116,21.419 10.946,24.248 16.447,18.746 21.948,24.248z"></path><title>Remove link.</title></g><g  event="link:options"><circle r="11" transform="translate(25)"></circle><path fill="white" transform="scale(.55) translate(29, -16)" d="M31.229,17.736c0.064-0.571,0.104-1.148,0.104-1.736s-0.04-1.166-0.104-1.737l-4.377-1.557c-0.218-0.716-0.504-1.401-0.851-2.05l1.993-4.192c-0.725-0.91-1.549-1.734-2.458-2.459l-4.193,1.994c-0.647-0.347-1.334-0.632-2.049-0.849l-1.558-4.378C17.165,0.708,16.588,0.667,16,0.667s-1.166,0.041-1.737,0.105L12.707,5.15c-0.716,0.217-1.401,0.502-2.05,0.849L6.464,4.005C5.554,4.73,4.73,5.554,4.005,6.464l1.994,4.192c-0.347,0.648-0.632,1.334-0.849,2.05l-4.378,1.557C0.708,14.834,0.667,15.412,0.667,16s0.041,1.165,0.105,1.736l4.378,1.558c0.217,0.715,0.502,1.401,0.849,2.049l-1.994,4.193c0.725,0.909,1.549,1.733,2.459,2.458l4.192-1.993c0.648,0.347,1.334,0.633,2.05,0.851l1.557,4.377c0.571,0.064,1.148,0.104,1.737,0.104c0.588,0,1.165-0.04,1.736-0.104l1.558-4.377c0.715-0.218,1.399-0.504,2.049-0.851l4.193,1.993c0.909-0.725,1.733-1.549,2.458-2.458l-1.993-4.193c0.347-0.647,0.633-1.334,0.851-2.049L31.229,17.736zM16,20.871c-2.69,0-4.872-2.182-4.872-4.871c0-2.69,2.182-4.872,4.872-4.872c2.689,0,4.871,2.182,4.871,4.872C20.871,18.689,18.689,20.871,16,20.871z"></path><title>Link options.</title></g></g></g></g><!--z-index:24--><g   id="j_277" ><path  stroke="#aaaaaa" d="M 600 824 L 698 916 C 702.6666666666666 920.6666666666665 708.3333333333333 922.9999999999999 715 923 L 900 929" id="v-3235" stroke-width="2" stroke-dasharray="30 30" fill="none" style="opacity: 1;"></path><path  fill="black" stroke="black" d="M 0 0 0 0" transform="matrix(0.7270707573127865,0.686562534559388,-0.686562534559388,0.7270707573127865,600,823.8499755859375)"></path><path  fill="#aaaaaa" stroke="#aaaaaa" d="M 20 0 L 0 10 L 20 20 z" id="v-3237" transform="matrix(-0.9995922972165446,-0.028552396490504346,0.028552396490504346,-0.9995922972165446,899.7144883627293,938.5659318003518)" style="opacity: 1;"></path><path  d="M 600 824 L 698 916 C 702.6666666666666 920.6666666666665 708.3333333333333 922.9999999999999 715 923 L 900 929" id="v-3236" fill="none" style="cursor: auto; pointer-events: visiblepainted;"></path><g ><g id="v-3229"  label-idx="0" cursor="move" transform="matrix(1,0,0,1,730.8837280273438,923.51513671875)" style="cursor: default; opacity: 1;"><rect joint-selector="rect" id="v-3232" fill="#111111" rx="3" ry="3" pointer-events="none" width="186.36526489257812" height="60.75784492492676" transform="matrix(1,0,0,1,-93.2,-30.4)"></rect><text joint-selector="text" id="v-3231" font-size="24px" xml:space="preserve" y="0.8em" fill="#aaaaaa" text-anchor="middle" pointer-events="none" font-family="Open Sans" font-weight="normal" transform="matrix(1,0,0,1,0,-24.7)"><tspan dy="0" >requests file and</tspan><tspan dy="1.2em" x="0" >its informations</tspan></text></g><g id="v-3230"  label-idx="1" cursor="move" transform="matrix(1,0,0,1,720.8837280273438,964.3151245117188)" style="cursor: default; opacity: 1;"><rect joint-selector="rect" id="v-3234" fill="#ffffff" rx="3" ry="3"  width="0" height="0" transform="matrix(1,0,0,1,0,0)" display="none"></rect><text joint-selector="text" id="v-3233" fill="#000000" font-size="14" text-anchor="middle" pointer-events="none"></text></g></g><g  display="none" style="display: none;"><g  transform="translate(705, 923)" id="v-3226"><circle  idx="0" r="10"></circle><path  idx="0" d="M16,5.333c-7.732,0-14,4.701-14,10.5c0,1.982,0.741,3.833,2.016,5.414L2,25.667l5.613-1.441c2.339,1.317,5.237,2.107,8.387,2.107c7.732,0,14-4.701,14-10.5C30,10.034,23.732,5.333,16,5.333z" transform="translate(5, -33)"></path><path  idx="0" transform="scale(.8) translate(9.5, -37)" d="M24.778,21.419 19.276,15.917 24.777,10.415 21.949,7.585 16.447,13.087 10.945,7.585 8.117,10.415 13.618,15.917 8.116,21.419 10.946,24.248 16.447,18.746 21.948,24.248z"><title>Remove vertex.</title></path></g></g><g  id="v-3239" display="none"><g  id="v-3227"><path  end="source" d="M 26 0 L 0 13 L 26 26 z"></path></g><g  id="v-3228"><path  end="target" d="M 26 0 L 0 13 L 26 26 z"></path></g></g><g  id="v-3238" display="none"><g  id="v-3225" transform="translate(629.1629213151306, 851.3774363366533) "><g  event="remove"><circle r="11"></circle><path transform="scale(.8) translate(-16, -16)" d="M24.778,21.419 19.276,15.917 24.777,10.415 21.949,7.585 16.447,13.087 10.945,7.585 8.117,10.415 13.618,15.917 8.116,21.419 10.946,24.248 16.447,18.746 21.948,24.248z"></path><title>Remove link.</title></g><g  event="link:options"><circle r="11" transform="translate(25)"></circle><path fill="white" transform="scale(.55) translate(29, -16)" d="M31.229,17.736c0.064-0.571,0.104-1.148,0.104-1.736s-0.04-1.166-0.104-1.737l-4.377-1.557c-0.218-0.716-0.504-1.401-0.851-2.05l1.993-4.192c-0.725-0.91-1.549-1.734-2.458-2.459l-4.193,1.994c-0.647-0.347-1.334-0.632-2.049-0.849l-1.558-4.378C17.165,0.708,16.588,0.667,16,0.667s-1.166,0.041-1.737,0.105L12.707,5.15c-0.716,0.217-1.401,0.502-2.05,0.849L6.464,4.005C5.554,4.73,4.73,5.554,4.005,6.464l1.994,4.192c-0.347,0.648-0.632,1.334-0.849,2.05l-4.378,1.557C0.708,14.834,0.667,15.412,0.667,16s0.041,1.165,0.105,1.736l4.378,1.558c0.217,0.715,0.502,1.401,0.849,2.049l-1.994,4.193c0.725,0.909,1.549,1.733,2.459,2.458l4.192-1.993c0.648,0.347,1.334,0.633,2.05,0.851l1.557,4.377c0.571,0.064,1.148,0.104,1.737,0.104c0.588,0,1.165-0.04,1.736-0.104l1.558-4.377c0.715-0.218,1.399-0.504,2.049-0.851l4.193,1.993c0.909-0.725,1.733-1.549,2.458-2.458l-1.993-4.193c0.347-0.647,0.633-1.334,0.851-2.049L31.229,17.736zM16,20.871c-2.69,0-4.872-2.182-4.872-4.871c0-2.69,2.182-4.872,4.872-4.872c2.689,0,4.871,2.182,4.871,4.872C20.871,18.689,18.689,20.871,16,20.871z"></path><title>Link options.</title></g></g></g></g><!--z-index:25--><g   id="j_278" ><path  stroke="#aaaaaa" d="M 1350 929 L 1545 924 C 1551.6666666666665 924 1557.333333333333 921.6666666666666 1562 917 L 1709 785" id="v-3253" stroke-width="2" stroke-dasharray="30 30" fill="none" style="opacity: 1;"></path><path  fill="black" stroke="black" d="M 0 0 0 0" transform="matrix(0.9996734846385837,-0.025552379743403325,0.025552379743403325,0.9996734846385837,1350,929.239990234375)"></path><path  fill="#aaaaaa" stroke="#aaaaaa" d="M 20 0 L 0 10 L 20 20 z" id="v-3255" transform="matrix(-0.7421398305834731,0.6702450834295866,-0.6702450834295866,-0.7421398305834731,1715.6124966010682,792.42140108482)" style="opacity: 1;"></path><path  d="M 1350 929 L 1545 924 C 1551.6666666666665 924 1557.333333333333 921.6666666666666 1562 917 L 1709 785" id="v-3254" fill="none" style="cursor: auto; pointer-events: visiblepainted;"></path><g ><g id="v-3247"  label-idx="0" cursor="move" transform="matrix(1,0,0,1,1555.36572265625,921.7542724609375)" style="cursor: default; opacity: 1;"><rect joint-selector="rect" id="v-3250" fill="#111111" rx="3" ry="3" pointer-events="none" width="176.68362426757812" height="89.55784225463867" transform="matrix(1,0,0,1,-88,-44.8)"></rect><text joint-selector="text" id="v-3249" font-size="24px" xml:space="preserve" y="0.8em" fill="#aaaaaa" text-anchor="middle" pointer-events="none" font-family="Open Sans" font-weight="normal" transform="matrix(1,0,0,1,0,-39.1)"><tspan dy="0" >requests for file</tspan><tspan dy="1.2em" x="0" >and its</tspan><tspan dy="1.2em" x="0" >informations</tspan></text></g><g id="v-3248"  label-idx="1" cursor="move" transform="matrix(1,0,0,1,1545.36572265625,976.9542846679688)" style="cursor: default; opacity: 1;"><rect joint-selector="rect" id="v-3252" fill="#ffffff" rx="3" ry="3"  width="0" height="0" transform="matrix(1,0,0,1,0,0)" display="none"></rect><text joint-selector="text" id="v-3251" fill="#000000" font-size="14" text-anchor="middle" pointer-events="none"></text></g></g><g  display="none" style="display: none;"><g  transform="translate(1555, 924)" id="v-3244"><circle  idx="0" r="10"></circle><path  idx="0" d="M16,5.333c-7.732,0-14,4.701-14,10.5c0,1.982,0.741,3.833,2.016,5.414L2,25.667l5.613-1.441c2.339,1.317,5.237,2.107,8.387,2.107c7.732,0,14-4.701,14-10.5C30,10.034,23.732,5.333,16,5.333z" transform="translate(5, -33)"></path><path  idx="0" transform="scale(.8) translate(9.5, -37)" d="M24.778,21.419 19.276,15.917 24.777,10.415 21.949,7.585 16.447,13.087 10.945,7.585 8.117,10.415 13.618,15.917 8.116,21.419 10.946,24.248 16.447,18.746 21.948,24.248z"><title>Remove vertex.</title></path></g></g><g  id="v-3257" display="none"><g  id="v-3245"><path  end="source" d="M 26 0 L 0 13 L 26 26 z"></path></g><g  id="v-3246"><path  end="target" d="M 26 0 L 0 13 L 26 26 z"></path></g></g><g  id="v-3256" display="none"><g  id="v-3243" transform="translate(1389.9868572363791, 927.974695968298) "><g  event="remove"><circle r="11"></circle><path transform="scale(.8) translate(-16, -16)" d="M24.778,21.419 19.276,15.917 24.777,10.415 21.949,7.585 16.447,13.087 10.945,7.585 8.117,10.415 13.618,15.917 8.116,21.419 10.946,24.248 16.447,18.746 21.948,24.248z"></path><title>Remove link.</title></g><g  event="link:options"><circle r="11" transform="translate(25)"></circle><path fill="white" transform="scale(.55) translate(29, -16)" d="M31.229,17.736c0.064-0.571,0.104-1.148,0.104-1.736s-0.04-1.166-0.104-1.737l-4.377-1.557c-0.218-0.716-0.504-1.401-0.851-2.05l1.993-4.192c-0.725-0.91-1.549-1.734-2.458-2.459l-4.193,1.994c-0.647-0.347-1.334-0.632-2.049-0.849l-1.558-4.378C17.165,0.708,16.588,0.667,16,0.667s-1.166,0.041-1.737,0.105L12.707,5.15c-0.716,0.217-1.401,0.502-2.05,0.849L6.464,4.005C5.554,4.73,4.73,5.554,4.005,6.464l1.994,4.192c-0.347,0.648-0.632,1.334-0.849,2.05l-4.378,1.557C0.708,14.834,0.667,15.412,0.667,16s0.041,1.165,0.105,1.736l4.378,1.558c0.217,0.715,0.502,1.401,0.849,2.049l-1.994,4.193c0.725,0.909,1.549,1.733,2.459,2.458l4.192-1.993c0.648,0.347,1.334,0.633,2.05,0.851l1.557,4.377c0.571,0.064,1.148,0.104,1.737,0.104c0.588,0,1.165-0.04,1.736-0.104l1.558-4.377c0.715-0.218,1.399-0.504,2.049-0.851l4.193,1.993c0.909-0.725,1.733-1.549,2.458-2.458l-1.993-4.193c0.347-0.647,0.633-1.334,0.851-2.049L31.229,17.736zM16,20.871c-2.69,0-4.872-2.182-4.872-4.871c0-2.69,2.182-4.872,4.872-4.872c2.689,0,4.871,2.182,4.871,4.872C20.871,18.689,18.689,20.871,16,20.871z"></path><title>Link options.</title></g></g></g></g><!--z-index:26--><g   id="j_279" ><path  stroke="#aaaaaa" d="M 1650 640 L 1454 645 C 1447.3333333333333 645 1441.6666666666665 647.3333333333333 1437 652 L 1290 785" id="v-3271" stroke-width="2" stroke-dasharray="30 30" fill="none" style="opacity: 1;"></path><path  fill="black" stroke="black" d="M 0 0 0 0" transform="matrix(-0.999730901461055,0.02319751417428114,-0.02319751417428114,-0.999730901461055,1650,640.219970703125)"></path><path  fill="#aaaaaa" stroke="#aaaaaa" d="M 20 0 L 0 10 L 20 20 z" id="v-3273" transform="matrix(0.7399401598691556,-0.6726726988757669,0.6726726988757669,0.7399401598691556,1283.2732854750507,777.6005797845975)" style="opacity: 1;"></path><path  d="M 1650 640 L 1454 645 C 1447.3333333333333 645 1441.6666666666665 647.3333333333333 1437 652 L 1290 785" id="v-3272" fill="none" style="cursor: auto; pointer-events: visiblepainted;"></path><g ><g id="v-3265"  label-idx="0" cursor="move" transform="matrix(1,0,0,1,1443.76416015625,647.1842041015625)" style="cursor: default; opacity: 1;"><rect joint-selector="rect" id="v-3268" fill="#111111" rx="3" ry="3" pointer-events="none" width="170.3357391357422" height="60.75784492492676" transform="matrix(1,0,0,1,-85.6,-30.4)"></rect><text joint-selector="text" id="v-3267" font-size="24px" xml:space="preserve" y="0.8em" fill="#aaaaaa" text-anchor="middle" pointer-events="none" font-family="Open Sans" font-weight="normal" transform="matrix(1,0,0,1,0,-24.7)"><tspan dy="0" >gets file and its</tspan><tspan dy="1.2em" x="0" >informations</tspan></text></g><g id="v-3266"  label-idx="1" cursor="move" transform="matrix(1,0,0,1,1433.76416015625,687.9841918945312)" style="cursor: default; opacity: 1;"><rect joint-selector="rect" id="v-3270" fill="#ffffff" rx="3" ry="3"  width="0" height="0" transform="matrix(1,0,0,1,0,0)" display="none"></rect><text joint-selector="text" id="v-3269" fill="#000000" font-size="14" text-anchor="middle" pointer-events="none"></text></g></g><g  display="none" style="display: none;"><g  transform="translate(1444, 645)" id="v-3262"><circle  idx="0" r="10"></circle><path  idx="0" d="M16,5.333c-7.732,0-14,4.701-14,10.5c0,1.982,0.741,3.833,2.016,5.414L2,25.667l5.613-1.441c2.339,1.317,5.237,2.107,8.387,2.107c7.732,0,14-4.701,14-10.5C30,10.034,23.732,5.333,16,5.333z" transform="translate(5, -33)"></path><path  idx="0" transform="scale(.8) translate(9.5, -37)" d="M24.778,21.419 19.276,15.917 24.777,10.415 21.949,7.585 16.447,13.087 10.945,7.585 8.117,10.415 13.618,15.917 8.116,21.419 10.946,24.248 16.447,18.746 21.948,24.248z"><title>Remove vertex.</title></path></g></g><g  id="v-3275" display="none"><g  id="v-3263"><path  end="source" d="M 26 0 L 0 13 L 26 26 z"></path></g><g  id="v-3264"><path  end="target" d="M 26 0 L 0 13 L 26 26 z"></path></g></g><g  id="v-3274" display="none"><g  id="v-3261" transform="translate(1610.013009061155, 641.0200762994602) "><g  event="remove"><circle r="11"></circle><path transform="scale(.8) translate(-16, -16)" d="M24.778,21.419 19.276,15.917 24.777,10.415 21.949,7.585 16.447,13.087 10.945,7.585 8.117,10.415 13.618,15.917 8.116,21.419 10.946,24.248 16.447,18.746 21.948,24.248z"></path><title>Remove link.</title></g><g  event="link:options"><circle r="11" transform="translate(25)"></circle><path fill="white" transform="scale(.55) translate(29, -16)" d="M31.229,17.736c0.064-0.571,0.104-1.148,0.104-1.736s-0.04-1.166-0.104-1.737l-4.377-1.557c-0.218-0.716-0.504-1.401-0.851-2.05l1.993-4.192c-0.725-0.91-1.549-1.734-2.458-2.459l-4.193,1.994c-0.647-0.347-1.334-0.632-2.049-0.849l-1.558-4.378C17.165,0.708,16.588,0.667,16,0.667s-1.166,0.041-1.737,0.105L12.707,5.15c-0.716,0.217-1.401,0.502-2.05,0.849L6.464,4.005C5.554,4.73,4.73,5.554,4.005,6.464l1.994,4.192c-0.347,0.648-0.632,1.334-0.849,2.05l-4.378,1.557C0.708,14.834,0.667,15.412,0.667,16s0.041,1.165,0.105,1.736l4.378,1.558c0.217,0.715,0.502,1.401,0.849,2.049l-1.994,4.193c0.725,0.909,1.549,1.733,2.459,2.458l4.192-1.993c0.648,0.347,1.334,0.633,2.05,0.851l1.557,4.377c0.571,0.064,1.148,0.104,1.737,0.104c0.588,0,1.165-0.04,1.736-0.104l1.558-4.377c0.715-0.218,1.399-0.504,2.049-0.851l4.193,1.993c0.909-0.725,1.733-1.549,2.458-2.458l-1.993-4.193c0.347-0.647,0.633-1.334,0.851-2.049L31.229,17.736zM16,20.871c-2.69,0-4.872-2.182-4.872-4.871c0-2.69,2.182-4.872,4.872-4.872c2.689,0,4.871,2.182,4.871,4.872C20.871,18.689,18.689,20.871,16,20.871z"></path><title>Link options.</title></g></g></g></g><!--z-index:27--><g   id="j_280" ><path  stroke="#aaaaaa" d="M 966 785 L 826 653 C 821.3333333333333 648.3333333333333 815.6666666666666 646 809 646 L 600 640" id="v-3289" stroke-width="2" stroke-dasharray="30 30" fill="none" style="opacity: 1;"></path><path  fill="black" stroke="black" d="M 0 0 0 0" transform="matrix(-0.7270214336284035,-0.6866147646569366,0.6866147646569366,-0.7270214336284035,966.1799926757812,785)"></path><path  fill="#aaaaaa" stroke="#aaaaaa" d="M 20 0 L 0 10 L 20 20 z" id="v-3291" transform="matrix(0.9996554970332157,0.026246661716765783,-0.026246661716765783,0.9996554970332157,600.2624936780854,630.2534295843752)" style="opacity: 1;"></path><path  d="M 966 785 L 826 653 C 821.3333333333333 648.3333333333333 815.6666666666666 646 809 646 L 600 640" id="v-3290" fill="none" style="cursor: auto; pointer-events: visiblepainted;"></path><g ><g id="v-3283"  label-idx="0" cursor="move" transform="matrix(1,0,0,1,810.1231689453125,646.0224609375)" style="cursor: default; opacity: 1;"><rect joint-selector="rect" id="v-3286" fill="#111111" rx="3" ry="3" pointer-events="none" width="192.6752471923828" height="60.75784492492676" transform="matrix(1,0,0,1,-95.8,-30.4)"></rect><text joint-selector="text" id="v-3285" font-size="24px" xml:space="preserve" y="0.8em" fill="#aaaaaa" text-anchor="middle" pointer-events="none" font-family="Open Sans" font-weight="normal" transform="matrix(1,0,0,1,0,-24.7)"><tspan dy="0" >shows file and its</tspan><tspan dy="1.2em" x="0" >informations</tspan></text></g><g id="v-3284"  label-idx="1" cursor="move" transform="matrix(1,0,0,1,800.1231689453125,686.8224487304688)" style="cursor: default; opacity: 1;"><rect joint-selector="rect" id="v-3288" fill="#ffffff" rx="3" ry="3"  width="0" height="0" transform="matrix(1,0,0,1,0,0)" display="none"></rect><text joint-selector="text" id="v-3287" fill="#000000" font-size="14" text-anchor="middle" pointer-events="none"></text></g></g><g  display="none" style="display: none;"><g  transform="translate(819, 646)" id="v-3280"><circle  idx="0" r="10"></circle><path  idx="0" d="M16,5.333c-7.732,0-14,4.701-14,10.5c0,1.982,0.741,3.833,2.016,5.414L2,25.667l5.613-1.441c2.339,1.317,5.237,2.107,8.387,2.107c7.732,0,14-4.701,14-10.5C30,10.034,23.732,5.333,16,5.333z" transform="translate(5, -33)"></path><path  idx="0" transform="scale(.8) translate(9.5, -37)" d="M24.778,21.419 19.276,15.917 24.777,10.415 21.949,7.585 16.447,13.087 10.945,7.585 8.117,10.415 13.618,15.917 8.116,21.419 10.946,24.248 16.447,18.746 21.948,24.248z"><title>Remove vertex.</title></path></g></g><g  id="v-3293" display="none"><g  id="v-3281"><path  end="source" d="M 26 0 L 0 13 L 26 26 z"></path></g><g  id="v-3282"><path  end="target" d="M 26 0 L 0 13 L 26 26 z"></path></g></g><g  id="v-3292" display="none"><g  id="v-3279" transform="translate(936.8964237525878, 757.5594852524399) "><g  event="remove"><circle r="11"></circle><path transform="scale(.8) translate(-16, -16)" d="M24.778,21.419 19.276,15.917 24.777,10.415 21.949,7.585 16.447,13.087 10.945,7.585 8.117,10.415 13.618,15.917 8.116,21.419 10.946,24.248 16.447,18.746 21.948,24.248z"></path><title>Remove link.</title></g><g  event="link:options"><circle r="11" transform="translate(25)"></circle><path fill="white" transform="scale(.55) translate(29, -16)" d="M31.229,17.736c0.064-0.571,0.104-1.148,0.104-1.736s-0.04-1.166-0.104-1.737l-4.377-1.557c-0.218-0.716-0.504-1.401-0.851-2.05l1.993-4.192c-0.725-0.91-1.549-1.734-2.458-2.459l-4.193,1.994c-0.647-0.347-1.334-0.632-2.049-0.849l-1.558-4.378C17.165,0.708,16.588,0.667,16,0.667s-1.166,0.041-1.737,0.105L12.707,5.15c-0.716,0.217-1.401,0.502-2.05,0.849L6.464,4.005C5.554,4.73,4.73,5.554,4.005,6.464l1.994,4.192c-0.347,0.648-0.632,1.334-0.849,2.05l-4.378,1.557C0.708,14.834,0.667,15.412,0.667,16s0.041,1.165,0.105,1.736l4.378,1.558c0.217,0.715,0.502,1.401,0.849,2.049l-1.994,4.193c0.725,0.909,1.549,1.733,2.459,2.458l4.192-1.993c0.648,0.347,1.334,0.633,2.05,0.851l1.557,4.377c0.571,0.064,1.148,0.104,1.737,0.104c0.588,0,1.165-0.04,1.736-0.104l1.558-4.377c0.715-0.218,1.399-0.504,2.049-0.851l4.193,1.993c0.909-0.725,1.733-1.549,2.458-2.458l-1.993-4.193c0.347-0.647,0.633-1.334,0.851-2.049L31.229,17.736zM16,20.871c-2.69,0-4.872-2.182-4.872-4.871c0-2.69,2.182-4.872,4.872-4.872c2.689,0,4.871,2.182,4.871,4.872C20.871,18.689,18.689,20.871,16,20.871z"></path><title>Link options.</title></g></g></g></g><!--z-index:28--><!--z-index:29--><!--z-index:30--><!--z-index:31--><!--z-index:32--><!--z-index:33--><!--z-index:34--><!--z-index:35--><!--z-index:36--><!--z-index:37--><!--z-index:38--><!--z-index:39--><!--z-index:40--><!--z-index:41--><!--z-index:42--><!--z-index:43--></g><g ></g><g ></g><g ></g></g></svg>