<svg xmlns="http://www.w3.org/2000/svg" xmlns:xlink="http://www.w3.org/1999/xlink" version="1.1" viewBox="0 0 2500 500" style="background: #111111"><defs><style>@import url(https://fonts.googleapis.com/css?family=Open+Sans:400,700);</style></defs><g transform="translate(25,100)"><rect width="450" height="300" rx="3" ry="3" x="0" y="0" fill="#6472d8" stroke-width="2" stroke="#5a67c2"/><text x="225" y="132" text-anchor="middle" fill="#ffffff" font-size="30px" font-family="Open Sans"><tspan x="225" dy="40px">Container</tspan></text></g><g transform="translate(525,100)"><path id="keyDatabaseCylinderPath" d="M 0,22.5 a 225,22.5 0,0,0 450 0 a 225,22.5 0,0,0 -450 0 l 0,255 a 225,22.5 0,0,0 450 0 l 0,-255" fill="#3e4cb6" stroke-width="2" stroke="#3844a4"></path><text x="225" y="143.25" text-anchor="middle" fill="#ffffff" font-size="30px" font-family="Open Sans"><tspan x="225" dy="40px">Container, Database</tspan></text></g><g transform="translate(1025,25)"><rect x="0" y="180" width="450" height="270" rx="90" fill="#3244ca" stroke-width="2" stroke="#2d3db6"/><circle cx="225" cy="100" r="100" fill="#3244ca" stroke-width="2" stroke="#2d3db6"/><line x1="90" y1="300" x2="90" y2="450" stroke-width="2" stroke="#2d3db6"/><line x1="360" y1="300" x2="360" y2="450" stroke-width="2" stroke="#2d3db6"/><text x="225" y="257" text-anchor="middle" fill="#ffffff" font-size="30px" font-family="Open Sans"><tspan x="225" dy="40px">Person</tspan></text></g><g transform="translate(1525,170)"><path d="M390,0 L390,60 L450,30 L 390,0" style="fill:#aaaaaa" stroke-dasharray="" /><path d="M0,30 L390,30" style="stroke:#aaaaaa; stroke-width: 6; fill: none; stroke-dasharray: 30 30;" /><text x="225" y="77" text-anchor="middle" fill="#aaaaaa" font-size="30px" font-family="Open Sans"><tspan x="225" dy="40px">Relationship</tspan></text></g></svg>